<?xml version="1.0" encoding="utf-8" standalone="no"?>
<!DOCTYPE svg PUBLIC "-//W3C//DTD SVG 1.1//EN"
  "http://www.w3.org/Graphics/SVG/1.1/DTD/svg11.dtd">
<svg xmlns:xlink="http://www.w3.org/1999/xlink" width="864pt" height="576pt" viewBox="0 0 864 576" xmlns="http://www.w3.org/2000/svg" version="1.1">
 <metadata>
  <rdf:RDF xmlns:dc="http://purl.org/dc/elements/1.1/" xmlns:cc="http://creativecommons.org/ns#" xmlns:rdf="http://www.w3.org/1999/02/22-rdf-syntax-ns#">
   <cc:Work>
    <dc:type rdf:resource="http://purl.org/dc/dcmitype/StillImage"/>
    <dc:date>2024-10-29T18:28:57.196512</dc:date>
    <dc:format>image/svg+xml</dc:format>
    <dc:creator>
     <cc:Agent>
      <dc:title>Matplotlib v3.9.2, https://matplotlib.org/</dc:title>
     </cc:Agent>
    </dc:creator>
   </cc:Work>
  </rdf:RDF>
 </metadata>
 <defs>
  <style type="text/css">*{stroke-linejoin: round; stroke-linecap: butt}</style>
 </defs>
 <g id="figure_1">
  <g id="patch_1">
   <path d="M 0 576 
L 864 576 
L 864 0 
L 0 0 
z
" style="fill: #ffffff"/>
  </g>
  <g id="patch_2">
   <path d="M 221.04 512.64 
L 664.56 512.64 
L 664.56 69.12 
L 221.04 69.12 
z
" style="fill: #ffffff"/>
  </g>
  <g id="pane3d_1">
   <g id="patch_3">
    <path d="M 263.29497 375.998102 
L 478.094528 251.183581 
L 478.417026 178.315661 
L 260.945684 293.731825 
" style="fill: #f2f2f2; opacity: 0.5; stroke: #f2f2f2; stroke-linejoin: miter"/>
   </g>
  </g>
  <g id="pane3d_2">
   <g id="patch_4">
    <path d="M 478.094528 251.183581 
L 615.245608 277.048626 
L 617.134769 202.202044 
L 478.417026 178.315661 
" style="fill: #e6e6e6; opacity: 0.5; stroke: #e6e6e6; stroke-linejoin: miter"/>
   </g>
  </g>
  <g id="pane3d_3">
   <g id="patch_5">
    <path d="M 263.29497 375.998102 
L 413.935129 410.289806 
L 615.245608 277.048626 
L 478.094528 251.183581 
" style="fill: #ececec; opacity: 0.5; stroke: #ececec; stroke-linejoin: miter"/>
   </g>
  </g>
  <g id="grid3d_1">
   <g id="Line3DCollection_1">
    <path d="M 272.572058 378.109937 
L 486.577417 252.783352 
L 486.994083 179.79258 
" style="fill: none; stroke: #b0b0b0; stroke-width: 0.8"/>
    <path d="M 304.690231 385.421313 
L 515.908853 258.314908 
L 516.653899 184.899827 
" style="fill: none; stroke: #b0b0b0; stroke-width: 0.8"/>
    <path d="M 337.298398 392.844232 
L 545.628931 263.919758 
L 546.7111 190.0755 
" style="fill: none; stroke: #b0b0b0; stroke-width: 0.8"/>
    <path d="M 370.407856 400.381264 
L 575.745428 269.599367 
L 577.173727 195.320986 
" style="fill: none; stroke: #b0b0b0; stroke-width: 0.8"/>
    <path d="M 404.030255 408.035062 
L 606.266327 275.355242 
L 608.050039 200.637706 
" style="fill: none; stroke: #b0b0b0; stroke-width: 0.8"/>
   </g>
  </g>
  <g id="grid3d_2">
   <g id="Line3DCollection_2">
    <path d="M 276.718686 285.360793 
L 278.850526 366.959167 
L 428.576122 400.599386 
" style="fill: none; stroke: #b0b0b0; stroke-width: 0.8"/>
    <path d="M 311.784557 266.750671 
L 313.446222 346.856494 
L 461.102821 379.07097 
" style="fill: none; stroke: #b0b0b0; stroke-width: 0.8"/>
    <path d="M 345.3867 248.917377 
L 346.614968 327.582985 
L 492.242651 358.460479 
" style="fill: none; stroke: #b0b0b0; stroke-width: 0.8"/>
    <path d="M 377.61489 231.813265 
L 378.443268 309.088376 
L 522.082459 338.710433 
" style="fill: none; stroke: #b0b0b0; stroke-width: 0.8"/>
    <path d="M 408.551708 215.39451 
L 409.010767 291.326385 
L 550.70199 319.768051 
" style="fill: none; stroke: #b0b0b0; stroke-width: 0.8"/>
    <path d="M 438.273247 199.620726 
L 438.390926 274.254327 
L 578.174598 301.584781 
" style="fill: none; stroke: #b0b0b0; stroke-width: 0.8"/>
    <path d="M 466.849736 184.454641 
L 466.651608 257.832769 
L 604.567873 284.115888 
" style="fill: none; stroke: #b0b0b0; stroke-width: 0.8"/>
   </g>
  </g>
  <g id="grid3d_3">
   <g id="Line3DCollection_3">
    <path d="M 615.282975 275.568161 
L 478.100909 249.741774 
L 263.24856 374.372947 
" style="fill: none; stroke: #b0b0b0; stroke-width: 0.8"/>
    <path d="M 615.822935 254.175522 
L 478.193107 228.909907 
L 262.577676 350.880221 
" style="fill: none; stroke: #b0b0b0; stroke-width: 0.8"/>
    <path d="M 616.366409 232.64367 
L 478.285886 207.946558 
L 261.901923 327.216991 
" style="fill: none; stroke: #b0b0b0; stroke-width: 0.8"/>
    <path d="M 616.913431 210.971241 
L 478.379253 186.850477 
L 261.221247 303.381395 
" style="fill: none; stroke: #b0b0b0; stroke-width: 0.8"/>
   </g>
  </g>
  <g id="axis3d_1">
   <g id="line2d_1">
    <path d="M 263.29497 375.998102 
L 413.935129 410.289806 
" style="fill: none; stroke: #000000; stroke-width: 0.8; stroke-linecap: square"/>
   </g>
   <g id="xtick_1">
    <g id="line2d_2">
     <path d="M 274.537044 376.959194 
L 268.627987 380.419678 
" style="fill: none; stroke: #000000; stroke-width: 0.8; stroke-linecap: square"/>
    </g>
    <g id="text_1">
     <!-- DHI -->
     <g transform="translate(243.134493 396.56595) scale(0.1 -0.1)">
      <defs>
       <path id="ArialMT-44" d="M 494 0 
L 494 4581 
L 2072 4581 
Q 2606 4581 2888 4516 
Q 3281 4425 3559 4188 
Q 3922 3881 4101 3404 
Q 4281 2928 4281 2316 
Q 4281 1794 4159 1391 
Q 4038 988 3847 723 
Q 3656 459 3429 307 
Q 3203 156 2883 78 
Q 2563 0 2147 0 
L 494 0 
z
M 1100 541 
L 2078 541 
Q 2531 541 2789 625 
Q 3047 709 3200 863 
Q 3416 1078 3536 1442 
Q 3656 1806 3656 2325 
Q 3656 3044 3420 3430 
Q 3184 3816 2847 3947 
Q 2603 4041 2063 4041 
L 1100 4041 
L 1100 541 
z
" transform="scale(0.015625)"/>
       <path id="ArialMT-48" d="M 513 0 
L 513 4581 
L 1119 4581 
L 1119 2700 
L 3500 2700 
L 3500 4581 
L 4106 4581 
L 4106 0 
L 3500 0 
L 3500 2159 
L 1119 2159 
L 1119 0 
L 513 0 
z
" transform="scale(0.015625)"/>
       <path id="ArialMT-49" d="M 597 0 
L 597 4581 
L 1203 4581 
L 1203 0 
L 597 0 
z
" transform="scale(0.015625)"/>
      </defs>
      <use xlink:href="#ArialMT-44"/>
      <use xlink:href="#ArialMT-48" x="72.216797"/>
      <use xlink:href="#ArialMT-49" x="144.433594"/>
     </g>
    </g>
   </g>
   <g id="xtick_2">
    <g id="line2d_3">
     <path d="M 306.631518 384.253093 
L 300.793625 387.766199 
" style="fill: none; stroke: #000000; stroke-width: 0.8; stroke-linecap: square"/>
    </g>
    <g id="text_2">
     <!-- GHI -->
     <g transform="translate(274.824859 404.013882) scale(0.1 -0.1)">
      <defs>
       <path id="ArialMT-47" d="M 2638 1797 
L 2638 2334 
L 4578 2338 
L 4578 638 
Q 4131 281 3656 101 
Q 3181 -78 2681 -78 
Q 2006 -78 1454 211 
Q 903 500 622 1047 
Q 341 1594 341 2269 
Q 341 2938 620 3517 
Q 900 4097 1425 4378 
Q 1950 4659 2634 4659 
Q 3131 4659 3532 4498 
Q 3934 4338 4162 4050 
Q 4391 3763 4509 3300 
L 3963 3150 
Q 3859 3500 3706 3700 
Q 3553 3900 3268 4020 
Q 2984 4141 2638 4141 
Q 2222 4141 1919 4014 
Q 1616 3888 1430 3681 
Q 1244 3475 1141 3228 
Q 966 2803 966 2306 
Q 966 1694 1177 1281 
Q 1388 869 1791 669 
Q 2194 469 2647 469 
Q 3041 469 3416 620 
Q 3791 772 3984 944 
L 3984 1797 
L 2638 1797 
z
" transform="scale(0.015625)"/>
      </defs>
      <use xlink:href="#ArialMT-47"/>
      <use xlink:href="#ArialMT-48" x="77.783203"/>
      <use xlink:href="#ArialMT-49" x="150"/>
     </g>
    </g>
   </g>
   <g id="xtick_3">
    <g id="line2d_4">
     <path d="M 339.21503 391.658132 
L 333.451171 395.225072 
" style="fill: none; stroke: #000000; stroke-width: 0.8; stroke-linecap: square"/>
    </g>
    <g id="text_3">
     <!-- RH -->
     <g transform="translate(310.901221 411.576228) scale(0.1 -0.1)">
      <defs>
       <path id="ArialMT-52" d="M 503 0 
L 503 4581 
L 2534 4581 
Q 3147 4581 3465 4457 
Q 3784 4334 3975 4021 
Q 4166 3709 4166 3331 
Q 4166 2844 3850 2509 
Q 3534 2175 2875 2084 
Q 3116 1969 3241 1856 
Q 3506 1613 3744 1247 
L 4541 0 
L 3778 0 
L 3172 953 
Q 2906 1366 2734 1584 
Q 2563 1803 2427 1890 
Q 2291 1978 2150 2013 
Q 2047 2034 1813 2034 
L 1109 2034 
L 1109 0 
L 503 0 
z
M 1109 2559 
L 2413 2559 
Q 2828 2559 3062 2645 
Q 3297 2731 3419 2920 
Q 3541 3109 3541 3331 
Q 3541 3656 3305 3865 
Q 3069 4075 2559 4075 
L 1109 4075 
L 1109 2559 
z
" transform="scale(0.015625)"/>
      </defs>
      <use xlink:href="#ArialMT-52"/>
      <use xlink:href="#ArialMT-48" x="72.216797"/>
     </g>
    </g>
   </g>
   <g id="xtick_4">
    <g id="line2d_5">
     <path d="M 372.298845 399.176871 
L 366.611997 402.798891 
" style="fill: none; stroke: #000000; stroke-width: 0.8; stroke-linecap: square"/>
    </g>
    <g id="text_4">
     <!-- T -->
     <g transform="translate(352.486021 419.255646) scale(0.1 -0.1)">
      <defs>
       <path id="ArialMT-54" d="M 1659 0 
L 1659 4041 
L 150 4041 
L 150 4581 
L 3781 4581 
L 3781 4041 
L 2266 4041 
L 2266 0 
L 1659 0 
z
" transform="scale(0.015625)"/>
      </defs>
      <use xlink:href="#ArialMT-54"/>
     </g>
    </g>
   </g>
   <g id="xtick_5">
    <g id="line2d_6">
     <path d="M 405.894574 406.81195 
L 400.287827 410.490335 
" style="fill: none; stroke: #000000; stroke-width: 0.8; stroke-linecap: square"/>
    </g>
    <g id="text_5">
     <!-- AP -->
     <g transform="translate(379.020808 427.054876) scale(0.1 -0.1)">
      <defs>
       <path id="ArialMT-41" d="M -9 0 
L 1750 4581 
L 2403 4581 
L 4278 0 
L 3588 0 
L 3053 1388 
L 1138 1388 
L 634 0 
L -9 0 
z
M 1313 1881 
L 2866 1881 
L 2388 3150 
Q 2169 3728 2063 4100 
Q 1975 3659 1816 3225 
L 1313 1881 
z
" transform="scale(0.015625)"/>
       <path id="ArialMT-50" d="M 494 0 
L 494 4581 
L 2222 4581 
Q 2678 4581 2919 4538 
Q 3256 4481 3484 4323 
Q 3713 4166 3852 3881 
Q 3991 3597 3991 3256 
Q 3991 2672 3619 2267 
Q 3247 1863 2275 1863 
L 1100 1863 
L 1100 0 
L 494 0 
z
M 1100 2403 
L 2284 2403 
Q 2872 2403 3119 2622 
Q 3366 2841 3366 3238 
Q 3366 3525 3220 3729 
Q 3075 3934 2838 4000 
Q 2684 4041 2272 4041 
L 1100 4041 
L 1100 2403 
z
" transform="scale(0.015625)"/>
      </defs>
      <use xlink:href="#ArialMT-41"/>
      <use xlink:href="#ArialMT-50" x="66.699219"/>
     </g>
    </g>
   </g>
   <g id="text_6">
    <!-- Variations -->
    <g transform="translate(282.799317 422.084026) rotate(-347.175733) scale(0.1 -0.1)">
     <defs>
      <path id="ArialMT-56" d="M 1803 0 
L 28 4581 
L 684 4581 
L 1875 1253 
Q 2019 853 2116 503 
Q 2222 878 2363 1253 
L 3600 4581 
L 4219 4581 
L 2425 0 
L 1803 0 
z
" transform="scale(0.015625)"/>
      <path id="ArialMT-61" d="M 2588 409 
Q 2275 144 1986 34 
Q 1697 -75 1366 -75 
Q 819 -75 525 192 
Q 231 459 231 875 
Q 231 1119 342 1320 
Q 453 1522 633 1644 
Q 813 1766 1038 1828 
Q 1203 1872 1538 1913 
Q 2219 1994 2541 2106 
Q 2544 2222 2544 2253 
Q 2544 2597 2384 2738 
Q 2169 2928 1744 2928 
Q 1347 2928 1158 2789 
Q 969 2650 878 2297 
L 328 2372 
Q 403 2725 575 2942 
Q 747 3159 1072 3276 
Q 1397 3394 1825 3394 
Q 2250 3394 2515 3294 
Q 2781 3194 2906 3042 
Q 3031 2891 3081 2659 
Q 3109 2516 3109 2141 
L 3109 1391 
Q 3109 606 3145 398 
Q 3181 191 3288 0 
L 2700 0 
Q 2613 175 2588 409 
z
M 2541 1666 
Q 2234 1541 1622 1453 
Q 1275 1403 1131 1340 
Q 988 1278 909 1158 
Q 831 1038 831 891 
Q 831 666 1001 516 
Q 1172 366 1500 366 
Q 1825 366 2078 508 
Q 2331 650 2450 897 
Q 2541 1088 2541 1459 
L 2541 1666 
z
" transform="scale(0.015625)"/>
      <path id="ArialMT-72" d="M 416 0 
L 416 3319 
L 922 3319 
L 922 2816 
Q 1116 3169 1280 3281 
Q 1444 3394 1641 3394 
Q 1925 3394 2219 3213 
L 2025 2691 
Q 1819 2813 1613 2813 
Q 1428 2813 1281 2702 
Q 1134 2591 1072 2394 
Q 978 2094 978 1738 
L 978 0 
L 416 0 
z
" transform="scale(0.015625)"/>
      <path id="ArialMT-69" d="M 425 3934 
L 425 4581 
L 988 4581 
L 988 3934 
L 425 3934 
z
M 425 0 
L 425 3319 
L 988 3319 
L 988 0 
L 425 0 
z
" transform="scale(0.015625)"/>
      <path id="ArialMT-74" d="M 1650 503 
L 1731 6 
Q 1494 -44 1306 -44 
Q 1000 -44 831 53 
Q 663 150 594 308 
Q 525 466 525 972 
L 525 2881 
L 113 2881 
L 113 3319 
L 525 3319 
L 525 4141 
L 1084 4478 
L 1084 3319 
L 1650 3319 
L 1650 2881 
L 1084 2881 
L 1084 941 
Q 1084 700 1114 631 
Q 1144 563 1211 522 
Q 1278 481 1403 481 
Q 1497 481 1650 503 
z
" transform="scale(0.015625)"/>
      <path id="ArialMT-6f" d="M 213 1659 
Q 213 2581 725 3025 
Q 1153 3394 1769 3394 
Q 2453 3394 2887 2945 
Q 3322 2497 3322 1706 
Q 3322 1066 3130 698 
Q 2938 331 2570 128 
Q 2203 -75 1769 -75 
Q 1072 -75 642 372 
Q 213 819 213 1659 
z
M 791 1659 
Q 791 1022 1069 705 
Q 1347 388 1769 388 
Q 2188 388 2466 706 
Q 2744 1025 2744 1678 
Q 2744 2294 2464 2611 
Q 2184 2928 1769 2928 
Q 1347 2928 1069 2612 
Q 791 2297 791 1659 
z
" transform="scale(0.015625)"/>
      <path id="ArialMT-6e" d="M 422 0 
L 422 3319 
L 928 3319 
L 928 2847 
Q 1294 3394 1984 3394 
Q 2284 3394 2536 3286 
Q 2788 3178 2913 3003 
Q 3038 2828 3088 2588 
Q 3119 2431 3119 2041 
L 3119 0 
L 2556 0 
L 2556 2019 
Q 2556 2363 2490 2533 
Q 2425 2703 2258 2804 
Q 2091 2906 1866 2906 
Q 1506 2906 1245 2678 
Q 984 2450 984 1813 
L 984 0 
L 422 0 
z
" transform="scale(0.015625)"/>
      <path id="ArialMT-73" d="M 197 991 
L 753 1078 
Q 800 744 1014 566 
Q 1228 388 1613 388 
Q 2000 388 2187 545 
Q 2375 703 2375 916 
Q 2375 1106 2209 1216 
Q 2094 1291 1634 1406 
Q 1016 1563 777 1677 
Q 538 1791 414 1992 
Q 291 2194 291 2438 
Q 291 2659 392 2848 
Q 494 3038 669 3163 
Q 800 3259 1026 3326 
Q 1253 3394 1513 3394 
Q 1903 3394 2198 3281 
Q 2494 3169 2634 2976 
Q 2775 2784 2828 2463 
L 2278 2388 
Q 2241 2644 2061 2787 
Q 1881 2931 1553 2931 
Q 1166 2931 1000 2803 
Q 834 2675 834 2503 
Q 834 2394 903 2306 
Q 972 2216 1119 2156 
Q 1203 2125 1616 2013 
Q 2213 1853 2448 1751 
Q 2684 1650 2818 1456 
Q 2953 1263 2953 975 
Q 2953 694 2789 445 
Q 2625 197 2315 61 
Q 2006 -75 1616 -75 
Q 969 -75 630 194 
Q 291 463 197 991 
z
" transform="scale(0.015625)"/>
     </defs>
     <use xlink:href="#ArialMT-56"/>
     <use xlink:href="#ArialMT-61" x="59.324219"/>
     <use xlink:href="#ArialMT-72" x="114.939453"/>
     <use xlink:href="#ArialMT-69" x="148.240234"/>
     <use xlink:href="#ArialMT-61" x="170.457031"/>
     <use xlink:href="#ArialMT-74" x="226.072266"/>
     <use xlink:href="#ArialMT-69" x="253.855469"/>
     <use xlink:href="#ArialMT-6f" x="276.072266"/>
     <use xlink:href="#ArialMT-6e" x="331.6875"/>
     <use xlink:href="#ArialMT-73" x="387.302734"/>
    </g>
   </g>
  </g>
  <g id="axis3d_2">
   <g id="line2d_7">
    <path d="M 615.245608 277.048626 
L 413.935129 410.289806 
" style="fill: none; stroke: #000000; stroke-width: 0.8; stroke-linecap: square"/>
   </g>
   <g id="xtick_6">
    <g id="line2d_8">
     <path d="M 427.336458 400.32086 
L 431.057547 401.156911 
" style="fill: none; stroke: #000000; stroke-width: 0.8; stroke-linecap: square"/>
    </g>
    <g id="text_7">
     <!-- 0 -->
     <g transform="translate(433.533727 413.629317) scale(0.1 -0.1)">
      <defs>
       <path id="ArialMT-30" d="M 266 2259 
Q 266 3072 433 3567 
Q 600 4063 929 4331 
Q 1259 4600 1759 4600 
Q 2128 4600 2406 4451 
Q 2684 4303 2865 4023 
Q 3047 3744 3150 3342 
Q 3253 2941 3253 2259 
Q 3253 1453 3087 958 
Q 2922 463 2592 192 
Q 2263 -78 1759 -78 
Q 1097 -78 719 397 
Q 266 969 266 2259 
z
M 844 2259 
Q 844 1131 1108 757 
Q 1372 384 1759 384 
Q 2147 384 2411 759 
Q 2675 1134 2675 2259 
Q 2675 3391 2411 3762 
Q 2147 4134 1753 4134 
Q 1366 4134 1134 3806 
Q 844 3388 844 2259 
z
" transform="scale(0.015625)"/>
      </defs>
      <use xlink:href="#ArialMT-30"/>
     </g>
    </g>
   </g>
   <g id="xtick_7">
    <g id="line2d_9">
     <path d="M 459.881187 378.804444 
L 463.548112 379.604463 
" style="fill: none; stroke: #000000; stroke-width: 0.8; stroke-linecap: square"/>
    </g>
    <g id="text_8">
     <!-- 50 -->
     <g transform="translate(463.146753 391.949323) scale(0.1 -0.1)">
      <defs>
       <path id="ArialMT-35" d="M 266 1200 
L 856 1250 
Q 922 819 1161 601 
Q 1400 384 1738 384 
Q 2144 384 2425 690 
Q 2706 997 2706 1503 
Q 2706 1984 2436 2262 
Q 2166 2541 1728 2541 
Q 1456 2541 1237 2417 
Q 1019 2294 894 2097 
L 366 2166 
L 809 4519 
L 3088 4519 
L 3088 3981 
L 1259 3981 
L 1013 2750 
Q 1425 3038 1878 3038 
Q 2478 3038 2890 2622 
Q 3303 2206 3303 1553 
Q 3303 931 2941 478 
Q 2500 -78 1738 -78 
Q 1113 -78 717 272 
Q 322 622 266 1200 
z
" transform="scale(0.015625)"/>
      </defs>
      <use xlink:href="#ArialMT-35"/>
      <use xlink:href="#ArialMT-30" x="55.615234"/>
     </g>
    </g>
   </g>
   <g id="xtick_8">
    <g id="line2d_10">
     <path d="M 491.038652 358.205195 
L 494.6526 358.971462 
" style="fill: none; stroke: #000000; stroke-width: 0.8; stroke-linecap: square"/>
    </g>
    <g id="text_9">
     <!-- 100 -->
     <g transform="translate(491.377112 371.194707) scale(0.1 -0.1)">
      <defs>
       <path id="ArialMT-31" d="M 2384 0 
L 1822 0 
L 1822 3584 
Q 1619 3391 1289 3197 
Q 959 3003 697 2906 
L 697 3450 
Q 1169 3672 1522 3987 
Q 1875 4303 2022 4600 
L 2384 4600 
L 2384 0 
z
" transform="scale(0.015625)"/>
      </defs>
      <use xlink:href="#ArialMT-31"/>
      <use xlink:href="#ArialMT-30" x="55.615234"/>
      <use xlink:href="#ArialMT-30" x="111.230469"/>
     </g>
    </g>
   </g>
   <g id="xtick_9">
    <g id="line2d_11">
     <path d="M 520.895702 338.465694 
L 524.457855 339.200301 
" style="fill: none; stroke: #000000; stroke-width: 0.8; stroke-linecap: square"/>
    </g>
    <g id="text_10">
     <!-- 150 -->
     <g transform="translate(521.091947 351.307459) scale(0.1 -0.1)">
      <use xlink:href="#ArialMT-31"/>
      <use xlink:href="#ArialMT-35" x="55.615234"/>
      <use xlink:href="#ArialMT-30" x="111.230469"/>
     </g>
    </g>
   </g>
   <g id="xtick_10">
    <g id="line2d_12">
     <path d="M 549.532086 319.533216 
L 553.043615 320.238085 
" style="fill: none; stroke: #000000; stroke-width: 0.8; stroke-linecap: square"/>
    </g>
    <g id="text_11">
     <!-- 200 -->
     <g transform="translate(549.590371 332.234319) scale(0.1 -0.1)">
      <defs>
       <path id="ArialMT-32" d="M 3222 541 
L 3222 0 
L 194 0 
Q 188 203 259 391 
Q 375 700 629 1000 
Q 884 1300 1366 1694 
Q 2113 2306 2375 2664 
Q 2638 3022 2638 3341 
Q 2638 3675 2398 3904 
Q 2159 4134 1775 4134 
Q 1369 4134 1125 3890 
Q 881 3647 878 3216 
L 300 3275 
Q 359 3922 746 4261 
Q 1134 4600 1788 4600 
Q 2447 4600 2831 4234 
Q 3216 3869 3216 3328 
Q 3216 3053 3103 2787 
Q 2991 2522 2730 2228 
Q 2469 1934 1863 1422 
Q 1356 997 1212 845 
Q 1069 694 975 541 
L 3222 541 
z
" transform="scale(0.015625)"/>
      </defs>
      <use xlink:href="#ArialMT-32"/>
      <use xlink:href="#ArialMT-30" x="55.615234"/>
      <use xlink:href="#ArialMT-30" x="111.230469"/>
     </g>
    </g>
   </g>
   <g id="xtick_11">
    <g id="line2d_13">
     <path d="M 577.021164 301.359262 
L 580.483224 302.036162 
" style="fill: none; stroke: #000000; stroke-width: 0.8; stroke-linecap: square"/>
    </g>
    <g id="text_12">
     <!-- 250 -->
     <g transform="translate(576.945577 313.926301) scale(0.1 -0.1)">
      <use xlink:href="#ArialMT-32"/>
      <use xlink:href="#ArialMT-35" x="55.615234"/>
      <use xlink:href="#ArialMT-30" x="111.230469"/>
     </g>
    </g>
   </g>
   <g id="xtick_12">
    <g id="line2d_14">
     <path d="M 603.430529 283.899141 
L 606.844259 284.549706 
" style="fill: none; stroke: #000000; stroke-width: 0.8; stroke-linecap: square"/>
    </g>
    <g id="text_13">
     <!-- 300 -->
     <g transform="translate(603.225004 296.338269) scale(0.1 -0.1)">
      <defs>
       <path id="ArialMT-33" d="M 269 1209 
L 831 1284 
Q 928 806 1161 595 
Q 1394 384 1728 384 
Q 2125 384 2398 659 
Q 2672 934 2672 1341 
Q 2672 1728 2419 1979 
Q 2166 2231 1775 2231 
Q 1616 2231 1378 2169 
L 1441 2663 
Q 1497 2656 1531 2656 
Q 1891 2656 2178 2843 
Q 2466 3031 2466 3422 
Q 2466 3731 2256 3934 
Q 2047 4138 1716 4138 
Q 1388 4138 1169 3931 
Q 950 3725 888 3313 
L 325 3413 
Q 428 3978 793 4289 
Q 1159 4600 1703 4600 
Q 2078 4600 2393 4439 
Q 2709 4278 2876 4000 
Q 3044 3722 3044 3409 
Q 3044 3113 2884 2869 
Q 2725 2625 2413 2481 
Q 2819 2388 3044 2092 
Q 3269 1797 3269 1353 
Q 3269 753 2831 336 
Q 2394 -81 1725 -81 
Q 1122 -81 723 278 
Q 325 638 269 1209 
z
" transform="scale(0.015625)"/>
      </defs>
      <use xlink:href="#ArialMT-33"/>
      <use xlink:href="#ArialMT-30" x="55.615234"/>
      <use xlink:href="#ArialMT-30" x="111.230469"/>
     </g>
    </g>
   </g>
   <g id="text_14">
    <!-- Time(h) -->
    <g transform="translate(535.297341 369.911422) rotate(-33.499343) scale(0.1 -0.1)">
     <defs>
      <path id="ArialMT-6d" d="M 422 0 
L 422 3319 
L 925 3319 
L 925 2853 
Q 1081 3097 1340 3245 
Q 1600 3394 1931 3394 
Q 2300 3394 2536 3241 
Q 2772 3088 2869 2813 
Q 3263 3394 3894 3394 
Q 4388 3394 4653 3120 
Q 4919 2847 4919 2278 
L 4919 0 
L 4359 0 
L 4359 2091 
Q 4359 2428 4304 2576 
Q 4250 2725 4106 2815 
Q 3963 2906 3769 2906 
Q 3419 2906 3187 2673 
Q 2956 2441 2956 1928 
L 2956 0 
L 2394 0 
L 2394 2156 
Q 2394 2531 2256 2718 
Q 2119 2906 1806 2906 
Q 1569 2906 1367 2781 
Q 1166 2656 1075 2415 
Q 984 2175 984 1722 
L 984 0 
L 422 0 
z
" transform="scale(0.015625)"/>
      <path id="ArialMT-65" d="M 2694 1069 
L 3275 997 
Q 3138 488 2766 206 
Q 2394 -75 1816 -75 
Q 1088 -75 661 373 
Q 234 822 234 1631 
Q 234 2469 665 2931 
Q 1097 3394 1784 3394 
Q 2450 3394 2872 2941 
Q 3294 2488 3294 1666 
Q 3294 1616 3291 1516 
L 816 1516 
Q 847 969 1125 678 
Q 1403 388 1819 388 
Q 2128 388 2347 550 
Q 2566 713 2694 1069 
z
M 847 1978 
L 2700 1978 
Q 2663 2397 2488 2606 
Q 2219 2931 1791 2931 
Q 1403 2931 1139 2672 
Q 875 2413 847 1978 
z
" transform="scale(0.015625)"/>
      <path id="ArialMT-28" d="M 1497 -1347 
Q 1031 -759 709 28 
Q 388 816 388 1659 
Q 388 2403 628 3084 
Q 909 3875 1497 4659 
L 1900 4659 
Q 1522 4009 1400 3731 
Q 1209 3300 1100 2831 
Q 966 2247 966 1656 
Q 966 153 1900 -1347 
L 1497 -1347 
z
" transform="scale(0.015625)"/>
      <path id="ArialMT-68" d="M 422 0 
L 422 4581 
L 984 4581 
L 984 2938 
Q 1378 3394 1978 3394 
Q 2347 3394 2619 3248 
Q 2891 3103 3008 2847 
Q 3125 2591 3125 2103 
L 3125 0 
L 2563 0 
L 2563 2103 
Q 2563 2525 2380 2717 
Q 2197 2909 1863 2909 
Q 1613 2909 1392 2779 
Q 1172 2650 1078 2428 
Q 984 2206 984 1816 
L 984 0 
L 422 0 
z
" transform="scale(0.015625)"/>
      <path id="ArialMT-29" d="M 791 -1347 
L 388 -1347 
Q 1322 153 1322 1656 
Q 1322 2244 1188 2822 
Q 1081 3291 891 3722 
Q 769 4003 388 4659 
L 791 4659 
Q 1378 3875 1659 3084 
Q 1900 2403 1900 1659 
Q 1900 816 1576 28 
Q 1253 -759 791 -1347 
z
" transform="scale(0.015625)"/>
     </defs>
     <use xlink:href="#ArialMT-54"/>
     <use xlink:href="#ArialMT-69" x="57.333984"/>
     <use xlink:href="#ArialMT-6d" x="79.550781"/>
     <use xlink:href="#ArialMT-65" x="162.851562"/>
     <use xlink:href="#ArialMT-28" x="218.466797"/>
     <use xlink:href="#ArialMT-68" x="251.767578"/>
     <use xlink:href="#ArialMT-29" x="307.382812"/>
    </g>
   </g>
  </g>
  <g id="axis3d_3">
   <g id="line2d_15">
    <path d="M 615.245608 277.048626 
L 617.134769 202.202044 
" style="fill: none; stroke: #000000; stroke-width: 0.8; stroke-linecap: square"/>
   </g>
   <g id="xtick_13">
    <g id="line2d_16">
     <path d="M 614.151952 275.355231 
L 617.546696 275.994337 
" style="fill: none; stroke: #000000; stroke-width: 0.8; stroke-linecap: square"/>
    </g>
    <g id="text_15">
     <!-- 0.0 -->
     <g transform="translate(623.978632 278.334739) scale(0.1 -0.1)">
      <defs>
       <path id="ArialMT-2e" d="M 581 0 
L 581 641 
L 1222 641 
L 1222 0 
L 581 0 
z
" transform="scale(0.015625)"/>
      </defs>
      <use xlink:href="#ArialMT-30"/>
      <use xlink:href="#ArialMT-2e" x="55.615234"/>
      <use xlink:href="#ArialMT-30" x="83.398438"/>
     </g>
    </g>
   </g>
   <g id="xtick_14">
    <g id="line2d_17">
     <path d="M 614.688112 253.967195 
L 618.094268 254.592486 
" style="fill: none; stroke: #000000; stroke-width: 0.8; stroke-linecap: square"/>
    </g>
    <g id="text_16">
     <!-- 0.3 -->
     <g transform="translate(624.566319 257.037101) scale(0.1 -0.1)">
      <use xlink:href="#ArialMT-30"/>
      <use xlink:href="#ArialMT-2e" x="55.615234"/>
      <use xlink:href="#ArialMT-33" x="83.398438"/>
     </g>
    </g>
   </g>
   <g id="xtick_15">
    <g id="line2d_18">
     <path d="M 615.227759 232.440011 
L 618.645406 233.051292 
" style="fill: none; stroke: #000000; stroke-width: 0.8; stroke-linecap: square"/>
    </g>
    <g id="text_17">
     <!-- 0.6 -->
     <g transform="translate(625.157812 235.601579) scale(0.1 -0.1)">
      <defs>
       <path id="ArialMT-36" d="M 3184 3459 
L 2625 3416 
Q 2550 3747 2413 3897 
Q 2184 4138 1850 4138 
Q 1581 4138 1378 3988 
Q 1113 3794 959 3422 
Q 806 3050 800 2363 
Q 1003 2672 1297 2822 
Q 1591 2972 1913 2972 
Q 2475 2972 2870 2558 
Q 3266 2144 3266 1488 
Q 3266 1056 3080 686 
Q 2894 316 2569 119 
Q 2244 -78 1831 -78 
Q 1128 -78 684 439 
Q 241 956 241 2144 
Q 241 3472 731 4075 
Q 1159 4600 1884 4600 
Q 2425 4600 2770 4297 
Q 3116 3994 3184 3459 
z
M 888 1484 
Q 888 1194 1011 928 
Q 1134 663 1356 523 
Q 1578 384 1822 384 
Q 2178 384 2434 671 
Q 2691 959 2691 1453 
Q 2691 1928 2437 2201 
Q 2184 2475 1800 2475 
Q 1419 2475 1153 2201 
Q 888 1928 888 1484 
z
" transform="scale(0.015625)"/>
      </defs>
      <use xlink:href="#ArialMT-30"/>
      <use xlink:href="#ArialMT-2e" x="55.615234"/>
      <use xlink:href="#ArialMT-36" x="83.398438"/>
     </g>
    </g>
   </g>
   <g id="xtick_16">
    <g id="line2d_19">
     <path d="M 615.770928 210.772316 
L 619.200144 211.369391 
" style="fill: none; stroke: #000000; stroke-width: 0.8; stroke-linecap: square"/>
    </g>
    <g id="text_18">
     <!-- 0.9 -->
     <g transform="translate(625.753146 214.026827) scale(0.1 -0.1)">
      <defs>
       <path id="ArialMT-39" d="M 350 1059 
L 891 1109 
Q 959 728 1153 556 
Q 1347 384 1650 384 
Q 1909 384 2104 503 
Q 2300 622 2425 820 
Q 2550 1019 2634 1356 
Q 2719 1694 2719 2044 
Q 2719 2081 2716 2156 
Q 2547 1888 2255 1720 
Q 1963 1553 1622 1553 
Q 1053 1553 659 1965 
Q 266 2378 266 3053 
Q 266 3750 677 4175 
Q 1088 4600 1706 4600 
Q 2153 4600 2523 4359 
Q 2894 4119 3086 3673 
Q 3278 3228 3278 2384 
Q 3278 1506 3087 986 
Q 2897 466 2520 194 
Q 2144 -78 1638 -78 
Q 1100 -78 759 220 
Q 419 519 350 1059 
z
M 2653 3081 
Q 2653 3566 2395 3850 
Q 2138 4134 1775 4134 
Q 1400 4134 1122 3828 
Q 844 3522 844 3034 
Q 844 2597 1108 2323 
Q 1372 2050 1759 2050 
Q 2150 2050 2401 2323 
Q 2653 2597 2653 3081 
z
" transform="scale(0.015625)"/>
      </defs>
      <use xlink:href="#ArialMT-30"/>
      <use xlink:href="#ArialMT-2e" x="55.615234"/>
      <use xlink:href="#ArialMT-39" x="83.398438"/>
     </g>
    </g>
   </g>
   <g id="text_19">
    <!-- Value -->
    <g transform="translate(653.781045 242.809469) rotate(-88.554135) scale(0.1 -0.1)">
     <defs>
      <path id="ArialMT-6c" d="M 409 0 
L 409 4581 
L 972 4581 
L 972 0 
L 409 0 
z
" transform="scale(0.015625)"/>
      <path id="ArialMT-75" d="M 2597 0 
L 2597 488 
Q 2209 -75 1544 -75 
Q 1250 -75 995 37 
Q 741 150 617 320 
Q 494 491 444 738 
Q 409 903 409 1263 
L 409 3319 
L 972 3319 
L 972 1478 
Q 972 1038 1006 884 
Q 1059 663 1231 536 
Q 1403 409 1656 409 
Q 1909 409 2131 539 
Q 2353 669 2445 892 
Q 2538 1116 2538 1541 
L 2538 3319 
L 3100 3319 
L 3100 0 
L 2597 0 
z
" transform="scale(0.015625)"/>
     </defs>
     <use xlink:href="#ArialMT-56"/>
     <use xlink:href="#ArialMT-61" x="59.324219"/>
     <use xlink:href="#ArialMT-6c" x="114.939453"/>
     <use xlink:href="#ArialMT-75" x="137.15625"/>
     <use xlink:href="#ArialMT-65" x="192.771484"/>
    </g>
   </g>
  </g>
  <g id="axes_1">
   <g id="line2d_20">
    <path d="M 288.03229 367.336747 
L 290.845005 365.664996 
L 292.237918 364.422972 
L 294.083364 352.459981 
L 294.671325 347.307025 
L 295.308254 344.218627 
L 296.007042 343.774343 
L 296.74793 345.162962 
L 297.44999 344.920122 
L 298.185307 346.146096 
L 298.97457 349.762181 
L 299.734761 352.171209 
L 300.510428 355.313614 
L 301.299634 359.114226 
L 302.694848 358.750217 
L 304.768055 357.536519 
L 306.148731 356.796895 
L 307.524491 355.941643 
L 308.206107 355.264619 
L 308.891994 354.811378 
L 310.726121 343.046387 
L 311.356796 340.026814 
L 312.009936 338.081942 
L 312.58903 332.594699 
L 313.275569 332.268624 
L 313.951997 331.481387 
L 314.707142 334.556496 
L 317.769015 349.56935 
L 318.454885 349.521916 
L 319.128877 348.909906 
L 319.810305 348.700975 
L 323.191811 346.805969 
L 324.540198 346.039682 
L 325.207538 345.34032 
L 327.045851 334.616189 
L 327.608715 328.33705 
L 328.19366 323.221633 
L 328.823116 320.514432 
L 329.32223 310.654256 
L 330.079832 314.993914 
L 330.79489 317.056358 
L 331.556964 321.805666 
L 332.333041 327.43342 
L 333.135081 334.63078 
L 333.90719 340.247527 
L 334.576149 340.068484 
L 335.903689 339.214999 
L 337.89551 338.209373 
L 340.539303 336.627402 
L 341.193016 335.876739 
L 342.417919 329.38878 
L 342.98547 323.363531 
L 343.462454 311.660866 
L 343.661322 282.41768 
L 344.141605 270.591361 
L 344.867976 274.27544 
L 345.993675 303.561694 
L 346.901909 319.28466 
L 347.620357 322.96937 
L 348.310496 324.898867 
L 349.008562 327.414813 
L 349.720539 330.923793 
L 350.376583 330.803793 
L 351.027027 330.349087 
L 351.680361 330.124806 
L 352.9808 329.368601 
L 354.278416 328.567397 
L 356.222303 327.470737 
L 356.861911 326.587579 
L 357.458738 322.66828 
L 358.045819 318.03313 
L 358.656912 315.122129 
L 359.293669 314.094043 
L 360.553365 311.101398 
L 361.203945 311.193092 
L 362.511225 311.984886 
L 363.869586 316.931046 
L 364.541685 318.980866 
L 365.223059 321.836559 
L 365.865182 321.684114 
L 367.143725 321.059325 
L 369.055721 319.976324 
L 370.327442 319.228848 
L 371.597228 318.494975 
L 372.226961 317.753643 
L 372.831176 314.848361 
L 374.025864 307.839057 
L 375.255386 303.909321 
L 375.874471 302.362564 
L 376.496924 301.148229 
L 377.144048 302.22853 
L 377.785483 302.856391 
L 378.449449 305.65351 
L 379.760633 309.977113 
L 380.424497 313.076494 
L 381.053882 312.951906 
L 386.672934 309.681658 
L 387.29142 308.965197 
L 389.07128 298.785363 
L 389.67988 297.079511 
L 390.292016 295.799235 
L 390.90121 294.222096 
L 391.517064 293.441399 
L 392.142239 293.792041 
L 392.748013 291.939796 
L 393.383534 293.645154 
L 394.043028 298.335612 
L 395.329665 304.277537 
L 395.946341 304.14741 
L 396.560083 303.716143 
L 397.174921 303.485836 
L 401.458119 301.021566 
L 402.065469 300.309535 
L 403.24308 293.713545 
L 403.829877 290.10896 
L 404.426327 287.920139 
L 405.031553 287.074159 
L 405.631764 285.523635 
L 406.235791 284.605008 
L 406.854636 286.073596 
L 407.463649 286.106819 
L 408.087904 288.695245 
L 408.705937 290.431253 
L 409.327132 292.839355 
L 409.950334 295.755298 
L 410.554636 295.607541 
L 411.759411 294.909226 
L 413.563433 293.949711 
L 415.961279 292.525048 
L 416.557826 291.817311 
L 417.145471 289.343391 
L 418.311968 282.553033 
L 418.901009 280.409161 
L 419.493637 279.105912 
L 420.084142 277.384219 
L 420.676987 276.264208 
L 421.280023 277.666338 
L 421.876987 277.774826 
L 423.689231 284.574498 
L 424.293642 287.435865 
L 424.885346 287.086188 
L 426.068111 286.606341 
L 428.426588 285.251282 
L 430.190575 284.243181 
L 430.776612 283.530973 
L 431.936523 277.814059 
L 432.514896 274.322986 
L 433.68225 271.843797 
L 434.264127 269.991574 
L 434.848577 269.448885 
L 435.436775 270.967517 
L 436.021327 271.009496 
L 437.194945 274.558463 
L 437.780977 276.613874 
L 438.366976 279.203703 
L 443.576719 276.399573 
L 444.153288 276.075663 
L 444.729223 275.455571 
L 445.877886 269.667257 
L 446.451903 265.896481 
L 447.026634 264.237569 
L 447.601081 262.206122 
L 448.175332 259.701111 
L 448.749509 256.6752 
L 449.323491 256.339558 
L 450.469682 257.386858 
L 451.040035 263.35781 
L 452.17826 271.165058 
L 452.748169 270.797738 
L 453.317492 270.650447 
L 457.291072 268.429818 
L 457.857103 268.010516 
L 458.423119 267.312632 
L 459.564121 259.721769 
L 460.135793 255.379936 
L 460.704095 253.048901 
L 461.836566 250.342139 
L 462.401617 249.375233 
L 462.959774 251.478006 
L 463.520828 251.897993 
L 464.075437 254.86679 
L 464.631505 256.812145 
L 465.734478 263.322804 
L 466.293617 263.101262 
L 468.527114 261.745694 
L 469.084128 261.503656 
L 469.641184 261.108554 
L 470.197311 260.872282 
L 471.308993 260.180202 
L 471.865158 259.560346 
L 472.430563 256.249735 
L 473.568698 247.73093 
L 474.12567 246.726769 
L 474.680561 246.176011 
L 474.680561 246.176011 
" clip-path="url(#p56b80ac60f)" style="fill: none; stroke: #440154; stroke-opacity: 0.5; stroke-linecap: square"/>
   </g>
   <g id="line2d_21">
    <path d="M 288.034259 367.416395 
L 474.633086 258.326867 
L 474.633086 258.326867 
" clip-path="url(#p56b80ac60f)" style="fill: none; stroke: #808080; stroke-opacity: 0.5; stroke-width: 1.5; stroke-linecap: square"/>
   </g>
   <g id="line2d_22">
    <path d="M 319.97108 374.523739 
L 323.441547 372.344756 
L 324.130164 371.718004 
L 324.72804 366.36274 
L 324.992005 343.375495 
L 325.349191 325.106863 
L 325.770479 310.0851 
L 326.277625 299.533633 
L 326.870199 293.506895 
L 327.602687 295.040784 
L 328.435135 302.086793 
L 329.354844 314.044769 
L 331.324029 345.710792 
L 332.297627 361.270121 
L 333.082063 366.419601 
L 334.454058 365.819878 
L 339.900455 362.409199 
L 340.576376 361.848132 
L 341.178681 356.864106 
L 341.480267 333.535565 
L 341.876361 315.743057 
L 342.336325 301.703464 
L 342.848548 290.769222 
L 343.414907 283.11884 
L 344.124412 284.419025 
L 344.958652 293.681158 
L 346.747258 320.419195 
L 348.58833 351.470086 
L 349.345735 356.691041 
L 350.018905 356.471027 
L 350.686929 355.950023 
L 352.026511 355.257314 
L 356.027153 352.892915 
L 356.687891 352.21334 
L 357.290863 347.451461 
L 357.628818 323.63073 
L 358.053353 305.768476 
L 359.010291 277.303999 
L 359.676736 276.731977 
L 360.350523 276.74736 
L 361.114105 283.559097 
L 362.056976 304.100847 
L 362.921286 319.016606 
L 363.664584 324.909092 
L 364.545797 341.634229 
L 365.279855 347.178373 
L 365.938117 346.892584 
L 367.249562 346.053856 
L 369.867858 344.543518 
L 371.825124 343.359554 
L 372.473635 342.724695 
L 373.071045 337.72373 
L 373.452432 313.887145 
L 374.361135 278.039557 
L 374.90365 267.599365 
L 375.795363 288.519648 
L 376.37065 281.082017 
L 376.89001 268.429928 
L 380.190902 332.63719 
L 380.892991 337.757283 
L 381.538127 337.502807 
L 382.824403 336.766584 
L 387.308193 334.071679 
L 387.943027 333.303748 
L 388.531317 327.531267 
L 389.454954 287.74662 
L 389.969258 273.189031 
L 390.521592 262.691335 
L 391.119661 257.273614 
L 391.770162 257.885359 
L 392.4778 265.285564 
L 393.220309 277.067038 
L 393.979848 291.24116 
L 395.522475 323.722583 
L 396.196416 328.550384 
L 397.458859 327.901529 
L 399.347804 326.83368 
L 402.484886 324.96139 
L 403.10875 324.301162 
L 403.696922 318.521671 
L 404.177415 296.797561 
L 404.693556 279.868154 
L 405.231705 265.87441 
L 405.799458 256.115315 
L 406.396655 250.755705 
L 407.034954 251.843469 
L 407.709425 258.881895 
L 408.406496 269.929815 
L 409.841159 300.222627 
L 410.551284 315.02344 
L 411.199363 319.601392 
L 411.818771 319.355134 
L 417.364239 316.021234 
L 417.976677 315.394597 
L 418.561769 308.929866 
L 419.080463 287.610013 
L 419.621466 270.564103 
L 420.178615 256.645576 
L 420.755097 246.815735 
L 421.349753 241.071631 
L 421.972805 242.222955 
L 422.618573 249.320536 
L 423.289292 263.373491 
L 423.94589 274.522468 
L 425.284751 306.198334 
L 425.90946 310.721076 
L 426.516575 310.47418 
L 427.728575 309.766216 
L 431.954945 307.241507 
L 432.556195 306.653767 
L 433.142588 300.014316 
L 433.696476 278.890315 
L 434.835733 246.864191 
L 435.420939 236.813064 
L 436.015452 230.932448 
L 436.6237 232.262636 
L 437.241689 239.642529 
L 437.864037 250.812632 
L 439.114187 282.140876 
L 439.733824 297.553766 
L 440.336087 302.067518 
L 440.931281 301.812714 
L 442.119969 301.09548 
L 444.491654 299.697461 
L 446.265414 298.632701 
L 446.855646 298.021474 
L 447.444144 291.0368 
L 448.031733 269.952534 
L 448.622673 253.096339 
L 449.215873 239.71959 
L 449.810311 230.378854 
L 450.404859 225.250487 
L 450.997773 226.190303 
L 451.587308 233.485708 
L 452.173053 244.611844 
L 453.331413 274.988425 
L 453.906251 289.525052 
L 454.487034 293.601598 
L 455.654023 292.957691 
L 457.401046 291.952859 
L 460.303568 290.223852 
L 460.883131 289.639114 
L 461.47324 283.358075 
L 462.70404 247.542558 
L 463.312626 234.545625 
L 463.914431 225.299886 
L 464.5086 219.750737 
L 465.086868 220.875734 
L 465.649531 227.868891 
L 466.200999 238.465478 
L 467.274682 267.578807 
L 467.808644 281.549208 
L 468.370142 285.266048 
L 474.077114 281.948321 
L 474.646095 281.424734 
L 475.235825 275.621947 
L 476.517605 239.894928 
L 477.141239 226.976555 
L 477.748585 218.193574 
L 478.338623 213.536254 
L 478.90386 214.426796 
L 479.441379 221.189632 
L 479.964838 230.594807 
L 480.953245 260.135968 
L 481.447448 273.992795 
L 481.99291 277.100915 
L 483.116265 276.495327 
L 487.593517 273.819819 
L 488.152526 273.266529 
L 488.739049 268.099352 
L 490.068478 232.79539 
L 490.704853 220.230387 
L 491.317487 211.637154 
L 491.907947 206.618799 
L 492.459888 207.532485 
L 492.976496 213.674091 
L 493.461331 224.318551 
L 494.83575 265.794885 
L 495.362461 269.107804 
L 496.465175 268.477335 
L 498.116489 267.472405 
L 499.763505 266.532384 
L 501.408604 265.354041 
L 501.996465 259.951303 
L 503.371535 225.0208 
L 504.023747 212.248387 
L 504.642608 203.651628 
L 504.642608 203.651628 
" clip-path="url(#p56b80ac60f)" style="fill: none; stroke: #414487; stroke-opacity: 0.5; stroke-linecap: square"/>
   </g>
   <g id="line2d_23">
    <path d="M 319.972198 374.580137 
L 504.137632 263.94282 
L 504.137632 263.94282 
" clip-path="url(#p56b80ac60f)" style="fill: none; stroke: #808080; stroke-opacity: 0.5; stroke-width: 1.5; stroke-linecap: square"/>
   </g>
   <g id="line2d_24">
    <path d="M 352.090817 361.518583 
L 352.759834 359.746623 
L 353.458892 360.048441 
L 354.191987 362.744653 
L 354.876128 362.135792 
L 356.175992 356.224522 
L 356.875767 356.808692 
L 357.612042 360.057753 
L 359.047855 364.192275 
L 359.767899 366.539314 
L 360.453847 366.462655 
L 361.151902 367.334302 
L 361.834155 367.089049 
L 362.52243 367.345485 
L 363.203683 367.124339 
L 364.553387 365.840709 
L 365.219877 364.611677 
L 365.869768 362.112697 
L 366.512821 359.084811 
L 367.163119 356.638763 
L 367.826932 355.293793 
L 368.485882 353.586357 
L 369.176907 354.530564 
L 369.86227 355.079279 
L 371.176614 351.639 
L 371.799838 347.082142 
L 372.453251 345.082658 
L 373.163752 348.029698 
L 373.844091 348.462938 
L 374.539003 350.242625 
L 375.946733 355.68137 
L 376.629581 356.669464 
L 377.305365 357.09273 
L 377.976627 357.169072 
L 378.64849 357.364122 
L 379.315183 357.140152 
L 379.97781 356.58933 
L 380.637467 355.80677 
L 381.942458 352.990408 
L 383.210322 346.626717 
L 383.855245 344.550459 
L 384.488751 341.338281 
L 385.149853 340.95763 
L 385.807772 340.306651 
L 386.461314 339.251382 
L 387.103489 337.038257 
L 387.759314 336.308246 
L 388.426043 336.812904 
L 389.106469 338.898887 
L 391.153431 346.525699 
L 391.820005 347.529883 
L 392.479517 347.813842 
L 393.791362 347.778612 
L 395.090965 346.565147 
L 395.743397 346.377211 
L 397.678326 343.415674 
L 398.312821 341.185906 
L 398.934326 337.278327 
L 400.20451 333.061187 
L 400.851098 332.563986 
L 401.502191 332.763371 
L 402.151443 332.798382 
L 402.775954 329.406486 
L 403.414435 328.022848 
L 404.050121 326.281941 
L 404.710402 328.233798 
L 405.401823 335.029037 
L 406.715579 338.808671 
L 407.358318 338.704599 
L 407.999282 338.412449 
L 408.644911 338.970932 
L 409.923268 338.287018 
L 411.197919 337.341792 
L 412.462586 334.976839 
L 413.093071 333.561314 
L 413.712749 330.193316 
L 414.337496 327.779991 
L 414.968292 326.564627 
L 416.21892 322.155433 
L 418.088084 314.385912 
L 418.725867 315.054451 
L 419.347093 312.198793 
L 419.997455 315.988579 
L 420.665946 324.310032 
L 421.310743 327.515497 
L 421.946866 328.904516 
L 422.579172 329.557785 
L 423.209067 329.78064 
L 423.839959 330.433109 
L 424.467444 330.364371 
L 425.722431 330.729041 
L 426.967244 328.801108 
L 427.587868 327.477272 
L 428.206969 325.777949 
L 429.438689 320.458312 
L 430.673198 316.272202 
L 431.292024 314.876914 
L 432.525152 310.654836 
L 433.762923 308.79031 
L 434.386941 310.476801 
L 435.007183 310.796813 
L 436.246735 311.963018 
L 436.866643 313.191091 
L 437.485279 314.153584 
L 438.102398 314.654557 
L 438.717821 314.490691 
L 439.333189 314.669799 
L 439.947646 314.627669 
L 440.560886 314.071547 
L 441.173462 313.351591 
L 441.784471 311.579073 
L 442.394882 309.445091 
L 443.616069 306.316833 
L 445.445281 300.749522 
L 446.055114 300.219418 
L 446.664077 298.465249 
L 447.881582 297.235163 
L 448.489598 295.480001 
L 449.097202 297.335337 
L 449.703714 300.491946 
L 450.308909 304.378785 
L 450.913281 306.839563 
L 451.516841 308.805128 
L 452.119741 310.246097 
L 452.722392 310.719611 
L 453.324671 310.791057 
L 453.926528 310.668702 
L 454.528014 310.354369 
L 455.129199 309.83091 
L 455.730102 309.13624 
L 456.330933 308.129012 
L 456.931795 306.79438 
L 457.533368 304.690407 
L 458.137065 300.970763 
L 458.739394 298.235816 
L 459.340564 296.187903 
L 459.939936 295.092311 
L 460.540629 293.058112 
L 461.140035 291.611984 
L 462.334672 290.324363 
L 462.93389 288.492438 
L 463.528764 288.502716 
L 464.112263 293.161188 
L 464.688881 300.089712 
L 465.273581 303.08066 
L 465.864293 303.340733 
L 466.456033 302.998126 
L 467.632138 304.377962 
L 468.221315 304.349455 
L 468.810527 304.132855 
L 469.398485 304.155506 
L 470.576764 302.995136 
L 471.755839 301.107519 
L 472.346217 299.774153 
L 472.938013 297.972992 
L 474.114933 295.934399 
L 474.708479 293.488831 
L 475.288506 294.374217 
L 475.874827 293.5625 
L 477.05651 289.561313 
L 477.64533 287.960711 
L 478.221982 289.026102 
L 478.769223 296.38514 
L 479.340967 298.077794 
L 479.918422 298.389384 
L 480.497332 298.278614 
L 481.079056 297.491154 
L 482.233624 297.432747 
L 482.811868 297.067219 
L 483.970688 295.641487 
L 484.548724 295.071125 
L 485.129003 294.018111 
L 485.71148 292.513027 
L 486.297326 290.371327 
L 486.87764 289.160146 
L 487.465986 286.52848 
L 488.621567 284.725865 
L 489.78977 280.660818 
L 490.364958 280.002317 
L 490.944232 278.641521 
L 491.539849 274.715364 
L 492.087293 278.150415 
L 492.604238 286.003528 
L 493.182219 284.52168 
L 493.769181 281.68611 
L 494.321432 283.869652 
L 494.881682 284.783146 
L 495.446303 284.985051 
L 496.579874 284.566855 
L 497.147578 284.135957 
L 497.716045 283.54364 
L 498.285951 282.705569 
L 498.857772 281.567703 
L 500.029466 275.559725 
L 501.764535 269.354994 
L 502.329816 268.861698 
L 502.890148 268.921248 
L 503.460518 267.706265 
L 504.04677 264.556653 
L 504.616004 263.425414 
L 505.182167 262.617898 
L 505.711081 266.091001 
L 506.207775 273.142258 
L 506.746293 275.240592 
L 507.845757 276.647126 
L 508.400091 276.739199 
L 509.504806 277.186207 
L 510.611106 277.23729 
L 511.167991 276.789024 
L 512.288571 275.055084 
L 514.012676 267.813493 
L 514.574577 266.667407 
L 515.127027 266.432814 
L 515.650496 269.015906 
L 516.778601 266.028348 
L 517.332512 265.47757 
L 517.86934 266.522537 
L 518.437806 264.503635 
L 518.997292 263.315786 
L 519.511294 266.34955 
L 520.042798 267.669736 
L 520.587197 267.739296 
L 521.134761 267.474855 
L 522.222664 267.477856 
L 522.76211 267.817253 
L 523.306141 267.702843 
L 523.854015 267.209891 
L 524.408843 266.074663 
L 524.985105 263.055045 
L 526.675591 257.257986 
L 527.256927 253.793898 
L 527.816451 252.164431 
L 528.380669 250.127124 
L 528.931299 249.200908 
L 529.511256 245.840911 
L 530.625122 242.868734 
L 531.196151 240.220326 
L 531.744872 239.352232 
L 532.68266 250.139618 
L 533.69692 254.548516 
L 534.214684 255.833592 
L 534.214684 255.833592 
" clip-path="url(#p56b80ac60f)" style="fill: none; stroke: #2a788e; stroke-opacity: 0.5; stroke-linecap: square"/>
   </g>
   <g id="line2d_25">
    <path d="M 352.392853 381.852153 
L 534.036501 269.63383 
L 534.036501 269.63383 
" clip-path="url(#p56b80ac60f)" style="fill: none; stroke: #808080; stroke-opacity: 0.5; stroke-width: 1.5; stroke-linecap: square"/>
   </g>
   <g id="line2d_26">
    <path d="M 384.70203 327.436994 
L 385.393932 327.828685 
L 386.071978 326.856029 
L 386.721246 322.899141 
L 387.394765 321.515129 
L 388.093828 322.930777 
L 388.788288 323.952192 
L 389.453946 321.894561 
L 390.095538 317.178866 
L 390.753593 314.290077 
L 391.419161 312.270377 
L 392.092461 311.176492 
L 392.767869 310.383551 
L 393.437028 308.911624 
L 394.789252 307.797336 
L 395.466861 307.529625 
L 396.147842 307.760699 
L 396.832362 308.531196 
L 397.522368 310.111431 
L 398.220314 312.85199 
L 398.909229 314.569166 
L 399.591623 315.554823 
L 400.264437 315.365134 
L 400.938868 315.484169 
L 402.254579 311.345099 
L 402.925753 311.234025 
L 403.600168 311.687763 
L 404.290789 314.641784 
L 404.961103 314.748781 
L 405.602403 310.553025 
L 406.258893 308.67246 
L 406.908004 305.679676 
L 408.217792 301.595078 
L 408.880223 300.85549 
L 409.539318 299.643525 
L 410.199462 298.68145 
L 410.861808 298.181992 
L 412.189379 298.00236 
L 412.857865 298.948533 
L 413.527706 300.305309 
L 414.193756 301.119106 
L 414.870351 304.13335 
L 415.541641 306.349207 
L 416.204875 307.163892 
L 416.866112 307.735806 
L 417.524475 307.865203 
L 418.183188 308.215074 
L 419.495043 308.150352 
L 420.148936 307.872678 
L 421.434056 302.300733 
L 422.71453 295.6492 
L 423.360006 293.672129 
L 424.007656 292.339031 
L 424.656783 291.511508 
L 425.304351 290.381419 
L 425.95235 289.496002 
L 427.25229 289.355929 
L 427.901364 289.298926 
L 428.552554 290.133869 
L 429.853272 292.060823 
L 430.50537 294.094341 
L 431.158766 296.997249 
L 431.806338 298.111439 
L 432.45204 298.814999 
L 433.096118 299.160273 
L 433.738073 298.883149 
L 434.37898 298.389476 
L 435.022998 299.634441 
L 435.665264 300.437995 
L 436.30585 300.768313 
L 436.939891 297.851286 
L 437.567557 291.230707 
L 438.199831 287.061847 
L 438.835674 285.131344 
L 439.472377 283.983322 
L 440.109853 283.724613 
L 441.381365 281.670424 
L 442.017145 281.280947 
L 442.652784 281.322615 
L 443.287949 281.546863 
L 443.922853 282.308335 
L 445.190879 284.752666 
L 445.824298 287.479673 
L 446.456127 288.926659 
L 447.086672 288.852812 
L 447.716649 288.945068 
L 449.602586 291.124763 
L 450.22978 291.670006 
L 450.856449 291.625254 
L 451.482213 292.334364 
L 452.109323 288.905573 
L 452.738309 282.423165 
L 453.365956 278.776245 
L 453.992725 276.356839 
L 454.618277 275.152339 
L 455.243127 274.284178 
L 456.492198 271.966793 
L 457.737665 271.187236 
L 458.35851 271.557949 
L 458.977868 272.460432 
L 459.595231 274.114543 
L 460.210485 276.463877 
L 460.823321 279.572056 
L 461.439071 280.548682 
L 462.669586 281.867651 
L 463.284687 282.111932 
L 463.897476 283.087854 
L 464.511334 283.293364 
L 465.738193 283.308736 
L 466.353942 282.115854 
L 466.974224 279.147616 
L 467.59859 274.735621 
L 469.446533 269.990153 
L 470.060742 268.779318 
L 471.897654 266.168774 
L 473.113256 266.306973 
L 474.923085 268.828064 
L 477.930858 271.684514 
L 478.52836 272.705764 
L 479.726995 273.490643 
L 480.325169 273.921961 
L 480.926389 273.595495 
L 481.53236 272.209186 
L 485.189438 258.83841 
L 485.795363 257.151691 
L 486.396435 256.273823 
L 486.994564 255.835883 
L 487.588738 255.990484 
L 488.177565 256.94487 
L 489.345814 260.030633 
L 489.919435 263.060614 
L 490.502434 264.431323 
L 491.087234 265.39582 
L 491.675005 265.790921 
L 492.845891 266.999306 
L 493.431914 267.371567 
L 494.019309 267.453625 
L 494.604479 267.775196 
L 495.191588 267.734764 
L 495.801069 264.47386 
L 496.423032 259.484472 
L 497.036314 255.73214 
L 497.640569 253.218853 
L 498.836057 249.87571 
L 500.023446 247.451208 
L 500.611966 246.837353 
L 501.197818 246.505941 
L 501.777479 246.888211 
L 502.352058 247.82391 
L 503.484137 251.507045 
L 504.603348 256.307488 
L 505.175439 257.074561 
L 506.893139 258.756663 
L 507.466451 259.091127 
L 508.033501 260.058541 
L 509.174268 261.033896 
L 509.780553 257.527989 
L 510.423231 250.120431 
L 511.033016 246.294738 
L 512.223809 241.693321 
L 512.816295 239.673989 
L 513.985985 237.136153 
L 514.562705 236.640421 
L 515.133684 236.674938 
L 515.701972 236.923629 
L 516.26287 237.843334 
L 516.817041 239.352483 
L 517.358583 242.007339 
L 517.893271 245.225734 
L 518.448633 246.375798 
L 519.566083 247.84553 
L 520.123033 248.655467 
L 520.682292 249.192413 
L 521.242748 249.564417 
L 521.806661 249.570378 
L 522.928955 249.938191 
L 523.527888 246.699948 
L 524.183831 238.448998 
L 524.791441 234.496569 
L 525.375896 232.565177 
L 526.527364 230.145283 
L 527.672877 228.123809 
L 528.239095 227.617379 
L 528.801871 227.361526 
L 529.35845 227.578495 
L 529.908755 228.264732 
L 530.448499 229.759395 
L 530.966564 232.944395 
L 531.502091 234.644722 
L 532.045309 235.669038 
L 532.592242 236.345781 
L 534.240448 237.514397 
L 534.789319 237.85754 
L 535.330939 238.713766 
L 535.881128 238.868481 
L 536.435145 238.693857 
L 537.024199 235.84883 
L 537.667918 228.916087 
L 538.268999 225.199171 
L 538.853157 222.740511 
L 539.422842 221.337363 
L 540.548751 219.449723 
L 541.673915 217.518462 
L 542.765895 217.842245 
L 543.299687 218.80801 
L 543.827819 220.124514 
L 544.324616 223.572385 
L 544.839768 225.677192 
L 545.367974 226.826406 
L 545.900735 227.617668 
L 546.454712 226.923486 
L 547.04052 224.050283 
L 547.572833 224.775639 
L 548.110641 225.09291 
L 548.657887 224.746192 
L 549.213134 223.841525 
L 549.732355 225.286943 
L 550.276911 225.02597 
L 550.869028 221.637762 
L 552.000276 218.290537 
L 553.690147 213.614452 
L 554.24984 212.25425 
L 554.7938 211.866243 
L 555.325466 212.220738 
L 555.852927 212.803608 
L 556.361933 214.493262 
L 557.398431 216.602346 
L 557.916666 217.598835 
L 558.412426 219.920606 
L 558.9339 220.638576 
L 559.449082 221.69934 
L 559.981532 221.689019 
L 560.4951 222.774621 
L 561.549578 223.219904 
L 562.070344 223.77795 
L 562.598345 223.880824 
L 563.764731 217.613956 
L 565.450214 211.886308 
L 565.450214 211.886308 
" clip-path="url(#p56b80ac60f)" style="fill: none; stroke: #22a884; stroke-opacity: 0.5; stroke-linecap: square"/>
   </g>
   <g id="line2d_27">
    <path d="M 385.30725 389.234917 
L 564.337651 275.40141 
L 564.337651 275.40141 
" clip-path="url(#p56b80ac60f)" style="fill: none; stroke: #808080; stroke-opacity: 0.5; stroke-width: 1.5; stroke-linecap: square"/>
   </g>
   <g id="line2d_28">
    <path d="M 418.726756 396.730977 
L 422.724575 394.112573 
L 423.378771 391.117257 
L 423.971596 372.068561 
L 424.551031 348.548026 
L 425.161275 332.406166 
L 425.793735 321.843632 
L 426.444734 316.285368 
L 427.117013 317.024405 
L 427.801552 321.848071 
L 428.501099 332.044885 
L 429.213878 347.568981 
L 429.941225 369.440523 
L 430.652043 387.234718 
L 431.313978 388.486873 
L 438.505422 383.776778 
L 439.152113 380.902247 
L 439.776214 361.777349 
L 440.398044 338.413966 
L 441.032761 322.53488 
L 441.676544 312.692051 
L 442.324547 305.806279 
L 442.979053 305.455489 
L 443.63919 313.019263 
L 444.299584 324.108497 
L 444.958862 338.1687 
L 446.271248 377.009261 
L 446.915437 378.26857 
L 453.957471 373.656333 
L 454.59636 370.957259 
L 455.251851 351.389581 
L 455.914461 328.214622 
L 457.229341 299.014249 
L 457.869938 299.012992 
L 458.511571 297.881343 
L 459.143686 302.52665 
L 459.749504 321.974031 
L 460.357432 337.737965 
L 460.97346 347.187569 
L 461.567487 366.588706 
L 462.193661 368.261973 
L 469.090893 363.744575 
L 469.72182 361.115801 
L 471.799033 300.359469 
L 472.455652 291.864892 
L 473.015846 309.763943 
L 473.668268 302.243968 
L 474.347348 288.066432 
L 474.923976 300.177211 
L 475.48177 316.199953 
L 476.547631 357.351341 
L 477.158592 358.46057 
L 483.915441 354.035116 
L 484.540933 351.01437 
L 485.251502 332.729549 
L 485.992877 309.507487 
L 486.695747 293.6163 
L 487.370325 282.960862 
L 488.010169 278.378535 
L 488.624818 278.0095 
L 489.208548 282.595662 
L 489.757141 292.593331 
L 490.272844 307.409386 
L 491.22329 347.953389 
L 491.819767 348.858113 
L 498.440478 344.521825 
L 499.054865 342.110323 
L 499.801603 322.68906 
L 500.582324 299.3317 
L 501.308394 283.292195 
L 501.989833 273.079482 
L 502.630752 267.994064 
L 503.229808 268.029458 
L 503.788784 272.804275 
L 504.301703 282.875176 
L 504.767096 298.246344 
L 505.60339 338.699774 
L 506.186343 339.448607 
L 512.674989 335.198816 
L 513.281973 332.780814 
L 515.623694 274.04223 
L 516.310314 264.230532 
L 516.94257 259.80824 
L 517.524902 260.210394 
L 518.060188 265.03991 
L 518.968879 289.48638 
L 519.698076 329.493257 
L 520.26711 330.226294 
L 526.627603 326.060437 
L 527.227259 323.655651 
L 529.640063 266.231167 
L 530.332651 256.602959 
L 530.971934 251.360335 
L 531.541621 251.715217 
L 532.060897 256.027664 
L 532.512225 265.6005 
L 532.892989 280.531977 
L 533.512041 320.689826 
L 534.070515 321.185642 
L 540.306614 317.101258 
L 540.897511 314.8269 
L 543.383482 258.077018 
L 544.077509 248.892797 
L 544.698229 244.845762 
L 545.257555 245.027538 
L 545.754588 249.426231 
L 546.179648 258.62637 
L 546.519625 273.43107 
L 547.057072 311.949429 
L 547.60467 312.321336 
L 553.71999 308.316058 
L 554.302368 306.140524 
L 556.839021 251.18442 
L 557.539261 242.034614 
L 558.165894 237.411261 
L 558.72341 236.975227 
L 559.194961 241.675766 
L 559.58632 251.091732 
L 559.890896 265.545534 
L 560.078346 286.758903 
L 560.339266 303.4104 
L 560.87738 303.628267 
L 566.875395 299.699818 
L 567.449771 297.586847 
L 570.050237 243.241613 
L 570.750042 234.483793 
L 571.360295 230.628825 
L 571.892826 230.974025 
L 572.351973 235.231504 
L 572.740915 243.180475 
L 573.369346 294.890091 
L 573.896146 295.10152 
L 579.7802 291.247711 
L 580.344608 289.295813 
L 583.008315 235.406635 
L 583.72231 226.243913 
L 584.337438 221.979811 
L 584.862492 222.127468 
L 585.303521 226.341335 
L 585.640174 235.561408 
L 585.861675 250.250819 
L 585.947068 271.355795 
L 586.153752 286.463429 
L 586.668189 286.736366 
L 592.441498 282.95509 
L 593.004101 280.774236 
L 595.74667 226.503795 
L 596.465491 217.429907 
L 596.465491 217.429907 
" clip-path="url(#p56b80ac60f)" style="fill: none; stroke: #7ad151; stroke-opacity: 0.5; stroke-linecap: square"/>
   </g>
   <g id="line2d_29">
    <path d="M 418.726756 396.730977 
L 595.049256 281.247118 
L 595.049256 281.247118 
" clip-path="url(#p56b80ac60f)" style="fill: none; stroke: #808080; stroke-opacity: 0.5; stroke-width: 1.5; stroke-linecap: square"/>
   </g>
   <g id="Poly3DCollection_1">
    <defs>
     <path id="mdcc157f73e" d="M 288.034259 -208.583605 
L 474.633086 -317.673133 
L 474.680561 -329.823989 
L 474.12567 -329.273231 
L 473.568698 -328.26907 
L 473.000227 -324.205067 
L 472.430563 -319.750265 
L 471.865158 -316.439654 
L 471.308993 -315.819798 
L 470.753433 -315.494882 
L 470.197311 -315.127718 
L 469.641184 -314.891446 
L 469.084128 -314.496344 
L 468.527114 -314.254306 
L 467.969269 -313.877651 
L 467.411484 -313.670969 
L 466.852696 -313.261512 
L 466.293617 -312.898738 
L 465.734478 -312.677196 
L 465.183601 -315.969403 
L 464.631505 -319.187855 
L 464.075437 -321.13321 
L 463.520828 -324.102007 
L 462.959774 -324.521994 
L 462.401617 -326.624767 
L 461.836566 -325.657861 
L 461.270475 -324.312397 
L 460.704095 -322.951099 
L 460.135793 -320.620064 
L 459.564121 -316.278231 
L 458.993232 -312.281872 
L 458.423119 -308.687368 
L 457.857103 -307.989484 
L 457.291072 -307.570182 
L 456.724737 -307.248519 
L 456.15798 -306.943385 
L 455.590718 -306.578053 
L 455.023038 -306.229253 
L 454.454997 -305.967917 
L 453.886467 -305.659011 
L 453.317492 -305.349553 
L 452.748169 -305.202262 
L 452.17826 -304.834942 
L 451.609675 -308.599115 
L 451.040035 -312.64219 
L 450.469682 -318.613142 
L 449.896894 -319.199773 
L 449.323491 -319.660442 
L 448.749509 -319.3248 
L 448.175332 -316.298889 
L 447.601081 -313.793878 
L 447.026634 -311.762431 
L 446.451903 -310.103519 
L 445.877886 -306.332743 
L 445.303616 -303.324307 
L 444.729223 -300.544429 
L 444.153288 -299.924337 
L 443.576719 -299.600427 
L 442.999696 -299.277103 
L 442.422251 -298.921767 
L 441.84433 -298.592481 
L 441.265998 -298.226192 
L 440.687168 -297.900508 
L 440.107849 -297.60029 
L 439.528107 -297.274283 
L 438.947686 -297.096605 
L 438.366976 -296.796297 
L 437.780977 -299.386126 
L 437.194945 -301.441537 
L 436.608497 -303.245742 
L 436.021327 -304.990504 
L 435.436775 -305.032483 
L 434.848577 -306.551115 
L 434.264127 -306.008426 
L 433.68225 -304.156203 
L 433.098474 -303.021639 
L 432.514896 -301.677014 
L 431.936523 -298.185941 
L 431.356757 -295.258366 
L 430.776612 -292.469027 
L 430.190575 -291.756819 
L 429.603085 -291.406958 
L 429.015051 -291.084035 
L 428.426588 -290.748718 
L 427.837641 -290.418818 
L 427.248276 -290.073588 
L 426.658527 -289.703846 
L 426.068111 -289.393659 
L 425.477046 -289.132732 
L 424.885346 -288.913812 
L 424.293642 -288.564135 
L 423.689231 -291.425502 
L 423.085657 -293.803668 
L 422.481996 -295.962583 
L 421.876987 -298.225174 
L 421.280023 -298.333662 
L 420.676987 -299.735792 
L 420.084142 -298.615781 
L 419.493637 -296.894088 
L 418.901009 -295.590839 
L 418.311968 -293.446967 
L 417.729269 -289.926999 
L 417.145471 -286.656609 
L 416.557826 -284.182689 
L 415.961279 -283.474952 
L 415.362384 -283.148242 
L 414.763409 -282.743722 
L 414.163469 -282.433385 
L 413.563433 -282.050289 
L 412.962697 -281.708686 
L 412.361456 -281.371409 
L 411.759411 -281.090774 
L 411.156901 -280.80518 
L 410.554636 -280.392459 
L 409.950334 -280.244702 
L 409.327132 -283.160645 
L 408.705937 -285.568747 
L 408.087904 -287.304755 
L 407.463649 -289.893181 
L 406.854636 -289.926404 
L 406.235791 -291.394992 
L 405.631764 -290.476365 
L 405.031553 -288.925841 
L 404.426327 -288.079861 
L 403.829877 -285.89104 
L 403.24308 -282.286455 
L 402.655287 -278.840092 
L 402.065469 -275.690465 
L 401.458119 -274.978434 
L 400.847831 -274.610726 
L 400.236889 -274.265239 
L 399.625395 -273.927244 
L 399.013672 -273.553857 
L 398.401454 -273.180942 
L 397.788247 -272.872063 
L 397.174921 -272.514164 
L 396.560083 -272.283857 
L 395.946341 -271.85259 
L 395.329665 -271.722463 
L 394.6851 -274.913182 
L 394.043028 -277.664388 
L 393.383534 -282.354846 
L 392.748013 -284.060204 
L 392.142239 -282.207959 
L 391.517064 -282.558601 
L 390.90121 -281.777904 
L 390.292016 -280.200765 
L 389.67988 -278.920489 
L 389.07128 -277.214637 
L 388.480276 -273.565056 
L 387.886002 -270.280789 
L 387.29142 -267.034803 
L 386.672934 -266.318342 
L 386.050181 -266.002146 
L 385.427724 -265.601849 
L 384.804006 -265.279458 
L 384.18017 -264.916426 
L 383.556295 -264.506177 
L 382.931516 -264.135997 
L 382.305875 -263.80048 
L 381.680126 -263.425036 
L 381.053882 -263.048094 
L 380.424497 -262.923506 
L 379.760633 -266.022887 
L 379.10477 -268.257465 
L 378.449449 -270.34649 
L 377.785483 -273.143609 
L 377.144048 -273.77147 
L 376.496924 -274.851771 
L 375.874471 -273.637436 
L 375.255386 -272.090679 
L 374.63958 -270.227654 
L 374.025864 -268.160943 
L 373.426616 -264.818141 
L 372.831176 -261.151639 
L 372.226961 -258.246357 
L 371.597228 -257.505025 
L 370.962813 -257.119899 
L 370.327442 -256.771152 
L 369.691361 -256.437392 
L 369.055721 -256.023676 
L 368.41885 -255.66815 
L 367.781852 -255.280115 
L 367.143725 -254.940675 
L 366.503951 -254.689781 
L 365.865182 -254.315886 
L 365.223059 -254.163441 
L 364.541685 -257.019134 
L 363.869586 -259.068954 
L 363.193955 -261.312039 
L 362.511225 -264.015114 
L 361.857511 -264.442501 
L 361.203945 -264.806908 
L 360.553365 -264.898602 
L 359.923575 -263.40961 
L 359.293669 -261.905957 
L 358.656912 -260.877871 
L 358.045819 -257.96687 
L 357.458738 -253.33172 
L 356.861911 -249.412421 
L 356.222303 -248.529263 
L 355.574755 -248.172744 
L 354.927081 -247.787073 
L 354.278416 -247.432603 
L 353.629404 -247.064519 
L 352.9808 -246.631399 
L 352.331196 -246.230018 
L 351.680361 -245.875194 
L 351.027027 -245.650913 
L 350.376583 -245.196207 
L 349.720539 -245.076207 
L 349.008562 -248.585187 
L 348.310496 -251.101133 
L 347.620357 -253.03063 
L 346.901909 -256.71534 
L 345.993675 -272.438306 
L 344.867976 -301.72456 
L 344.141605 -305.408639 
L 343.661322 -293.58232 
L 343.462454 -264.339134 
L 342.98547 -252.636469 
L 342.417919 -246.61122 
L 341.809162 -243.140619 
L 341.193016 -240.123261 
L 340.539303 -239.372598 
L 339.878117 -239.041342 
L 339.218156 -238.603228 
L 338.556771 -238.216994 
L 337.89551 -237.790627 
L 337.232343 -237.44354 
L 336.568856 -237.082027 
L 335.903689 -236.785001 
L 335.239039 -236.424832 
L 334.576149 -235.931516 
L 333.90719 -235.752473 
L 333.135081 -241.36922 
L 332.333041 -248.56658 
L 331.556964 -254.194334 
L 330.79489 -258.943642 
L 330.079832 -261.006086 
L 329.32223 -265.345744 
L 328.823116 -255.485568 
L 328.19366 -252.778367 
L 327.608715 -247.66295 
L 327.045851 -241.383811 
L 326.435995 -237.648676 
L 325.821991 -234.140331 
L 325.207538 -230.65968 
L 324.540198 -229.960318 
L 323.865943 -229.595489 
L 323.191811 -229.194031 
L 322.516656 -228.815799 
L 321.841506 -228.407545 
L 321.164939 -228.042294 
L 320.488127 -227.659857 
L 319.810305 -227.299025 
L 319.128877 -227.090094 
L 318.454885 -226.478084 
L 317.769015 -226.43065 
L 317.006012 -230.170196 
L 316.24484 -233.747895 
L 315.475756 -237.643511 
L 314.707142 -241.443504 
L 313.951997 -244.518613 
L 313.275569 -243.731376 
L 312.58903 -243.405301 
L 312.009936 -237.918058 
L 311.356796 -235.973186 
L 310.726121 -232.953613 
L 310.112892 -229.111687 
L 309.502457 -225.145576 
L 308.891994 -221.188622 
L 308.206107 -220.735381 
L 307.524491 -220.058357 
L 306.836327 -219.657268 
L 306.148731 -219.203105 
L 305.459615 -218.791476 
L 304.768055 -218.463481 
L 304.078707 -218.00835 
L 303.386206 -217.668213 
L 302.694848 -217.249783 
L 301.998347 -217.033079 
L 301.299634 -216.885774 
L 300.510428 -220.686386 
L 299.734761 -223.828791 
L 298.97457 -226.237819 
L 298.185307 -229.853904 
L 297.44999 -231.079878 
L 296.74793 -230.837038 
L 296.007042 -232.225657 
L 295.308254 -231.781373 
L 294.671325 -228.692975 
L 294.083364 -223.540019 
L 293.463969 -219.723379 
L 292.85122 -215.634692 
L 292.237918 -211.577028 
L 291.542881 -210.908997 
L 290.845005 -210.335004 
L 290.143517 -209.88542 
L 289.441284 -209.441588 
L 288.736407 -209.08048 
L 288.03229 -208.663253 
z
" style="stroke: #440154"/>
    </defs>
    <g clip-path="url(#p56b80ac60f)">
     <use xlink:href="#mdcc157f73e" x="0" y="576" style="fill: #440154; fill-opacity: 0.3; stroke: #440154"/>
    </g>
   </g>
   <g id="Poly3DCollection_2">
    <defs>
     <path id="mdb916f1e71" d="M 319.972198 -201.419863 
L 504.137632 -312.05718 
L 504.642608 -372.348372 
L 504.023747 -363.751613 
L 503.371535 -350.9792 
L 502.696713 -335.22553 
L 501.996465 -316.048697 
L 501.408604 -310.645959 
L 500.859832 -310.149692 
L 500.311957 -309.818884 
L 499.763505 -309.467616 
L 499.215149 -309.183735 
L 498.665692 -308.810832 
L 498.116489 -308.527595 
L 497.566251 -308.16249 
L 497.016342 -307.899593 
L 496.465175 -307.522665 
L 495.91377 -307.170672 
L 495.362461 -306.892196 
L 494.83575 -310.205115 
L 494.374411 -323.160943 
L 493.926541 -338.48497 
L 493.461331 -351.681449 
L 492.976496 -362.325909 
L 492.459888 -368.467515 
L 491.907947 -369.381201 
L 491.317487 -364.362846 
L 490.704853 -355.769613 
L 490.068478 -343.20461 
L 489.412688 -327.2098 
L 488.739049 -307.900648 
L 488.152526 -302.733471 
L 487.593517 -302.180181 
L 487.035131 -301.802505 
L 486.476604 -301.474974 
L 485.917682 -301.154367 
L 485.358048 -300.784129 
L 484.798137 -300.441774 
L 484.238108 -300.158181 
L 483.677397 -299.829825 
L 483.116265 -299.504673 
L 482.555116 -299.261887 
L 481.99291 -298.899085 
L 481.447448 -302.007205 
L 480.953245 -315.864032 
L 480.45467 -329.40417 
L 479.964838 -345.405193 
L 479.441379 -354.810368 
L 478.90386 -361.573204 
L 478.338623 -362.463746 
L 477.748585 -357.806426 
L 477.141239 -349.023445 
L 476.517605 -336.105072 
L 475.882513 -319.970614 
L 475.235825 -300.378053 
L 474.646095 -294.575266 
L 474.077114 -294.051679 
L 473.508424 -293.715924 
L 472.939275 -293.376903 
L 472.369626 -293.023173 
L 471.799587 -292.685224 
L 471.229036 -292.328789 
L 470.658106 -291.992167 
L 470.086753 -291.664057 
L 469.514916 -291.325679 
L 468.942861 -291.06342 
L 468.370142 -290.733952 
L 467.808644 -294.450792 
L 467.274682 -308.421193 
L 466.742267 -324.047694 
L 466.200999 -337.534522 
L 465.649531 -348.131109 
L 465.086868 -355.124266 
L 464.5086 -356.249263 
L 463.914431 -350.700114 
L 463.312626 -341.454375 
L 462.70404 -328.457442 
L 462.090443 -312.096978 
L 461.47324 -292.641925 
L 460.883131 -286.360886 
L 460.303568 -285.776148 
L 459.723974 -285.423831 
L 459.143944 -285.086605 
L 458.563438 -284.73942 
L 457.982479 -284.397865 
L 457.401046 -284.047141 
L 456.819135 -283.683841 
L 456.236797 -283.348877 
L 455.654023 -283.042309 
L 455.0708 -282.759151 
L 454.487034 -282.398402 
L 453.906251 -286.474948 
L 453.331413 -301.011575 
L 452.754492 -317.271367 
L 452.173053 -331.388156 
L 451.587308 -342.514292 
L 450.997773 -349.809697 
L 450.404859 -350.749513 
L 449.810311 -345.621146 
L 449.215873 -336.28041 
L 448.622673 -322.903661 
L 448.031733 -306.047466 
L 447.444144 -284.9632 
L 446.855646 -277.978526 
L 446.265414 -277.367299 
L 445.67463 -277.022549 
L 445.083392 -276.639171 
L 444.491654 -276.302539 
L 443.899467 -275.927941 
L 443.306788 -275.576169 
L 442.713633 -275.225027 
L 442.119969 -274.90452 
L 441.525827 -274.579518 
L 440.931281 -274.187286 
L 440.336087 -273.932482 
L 439.733824 -278.446234 
L 439.114187 -293.859124 
L 438.48892 -310.735367 
L 437.864037 -325.187368 
L 437.241689 -336.357471 
L 436.6237 -343.737364 
L 436.015452 -345.067552 
L 435.420939 -339.186936 
L 434.835733 -329.135809 
L 434.262063 -314.420881 
L 433.696476 -297.109685 
L 433.142588 -275.985684 
L 432.556195 -269.346233 
L 431.954945 -268.758493 
L 431.352671 -268.388584 
L 430.749871 -268.032909 
L 430.146573 -267.679969 
L 429.542847 -267.30534 
L 428.938611 -266.938649 
L 428.333806 -266.597094 
L 427.728575 -266.233784 
L 427.122648 -265.932728 
L 426.516575 -265.52582 
L 425.90946 -265.278924 
L 425.284751 -269.801666 
L 424.619679 -284.93053 
L 423.94589 -301.477532 
L 423.289292 -312.626509 
L 422.618573 -326.679464 
L 421.972805 -333.777045 
L 421.349753 -334.928369 
L 420.755097 -329.184265 
L 420.178615 -319.354424 
L 419.621466 -305.435897 
L 419.080463 -288.389987 
L 418.561769 -267.070134 
L 417.976677 -260.605403 
L 417.364239 -259.978766 
L 416.749963 -259.634989 
L 416.135413 -259.24448 
L 415.520154 -258.895014 
L 414.904487 -258.526395 
L 414.288451 -258.131754 
L 413.671803 -257.757667 
L 413.054549 -257.402139 
L 412.436918 -257.022604 
L 411.818771 -256.644866 
L 411.199363 -256.398608 
L 410.551284 -260.97656 
L 409.841159 -275.777373 
L 409.118675 -292.067046 
L 408.406496 -306.070185 
L 407.709425 -317.118105 
L 407.034954 -324.156531 
L 406.396655 -325.244295 
L 405.799458 -319.884685 
L 405.231705 -310.12559 
L 404.693556 -296.131846 
L 404.177415 -279.202439 
L 403.696922 -257.478329 
L 403.10875 -251.698838 
L 402.484886 -251.03861 
L 401.858542 -250.659711 
L 401.231587 -250.293418 
L 400.604047 -249.93576 
L 399.976287 -249.537439 
L 399.347804 -249.16632 
L 398.718918 -248.779619 
L 398.089317 -248.417892 
L 397.458859 -248.098471 
L 396.828352 -247.717669 
L 396.196416 -247.449616 
L 395.522475 -252.277417 
L 394.757742 -267.946992 
L 393.979848 -284.75884 
L 393.220309 -298.932962 
L 392.4778 -310.714436 
L 391.770162 -318.114641 
L 391.119661 -318.726386 
L 390.521592 -313.308665 
L 389.969258 -302.810969 
L 389.454954 -288.25338 
L 388.977471 -269.899992 
L 388.531317 -248.468733 
L 387.943027 -242.696252 
L 387.308193 -241.928321 
L 386.669101 -241.560163 
L 386.029704 -241.167673 
L 385.389583 -240.794778 
L 384.748978 -240.416224 
L 384.108196 -240.001059 
L 383.466707 -239.603428 
L 382.824403 -239.233416 
L 382.180921 -238.925694 
L 381.538127 -238.497193 
L 380.892991 -238.242717 
L 380.190902 -243.36281 
L 379.374869 -259.087315 
L 378.546366 -275.627851 
L 377.729478 -290.729053 
L 376.89001 -307.570072 
L 376.37065 -294.917983 
L 375.795363 -287.480352 
L 374.90365 -308.400635 
L 374.361135 -297.960443 
L 373.915871 -279.108856 
L 373.452432 -262.112855 
L 373.071045 -238.27627 
L 372.473635 -233.275305 
L 371.825124 -232.640446 
L 371.172902 -232.275413 
L 370.520878 -231.847306 
L 369.867858 -231.456482 
L 369.214587 -231.040657 
L 368.560169 -230.673485 
L 367.905338 -230.294416 
L 367.249562 -229.946144 
L 366.593706 -229.55928 
L 365.938117 -229.107416 
L 365.279855 -228.821627 
L 364.545797 -234.365771 
L 363.664584 -251.090908 
L 362.921286 -256.983394 
L 362.056976 -271.899153 
L 361.114105 -292.440903 
L 360.350523 -299.25264 
L 359.676736 -299.268023 
L 359.010291 -298.696001 
L 358.528727 -284.607007 
L 358.053353 -270.231524 
L 357.628818 -252.36927 
L 357.290863 -228.548539 
L 356.687891 -223.78666 
L 356.027153 -223.107085 
L 355.361588 -222.728594 
L 354.695842 -222.32284 
L 354.02928 -221.933926 
L 353.362455 -221.523808 
L 352.694673 -221.139876 
L 352.026511 -220.742686 
L 351.357595 -220.357416 
L 350.686929 -220.049977 
L 350.018905 -219.528973 
L 349.345735 -219.308959 
L 348.58833 -224.529914 
L 347.664713 -240.38042 
L 346.747258 -255.580805 
L 345.852631 -269.080737 
L 344.958652 -282.318842 
L 344.124412 -291.580975 
L 343.414907 -292.88116 
L 342.848548 -285.230778 
L 342.336325 -274.296536 
L 341.876361 -260.256943 
L 341.480267 -242.464435 
L 341.178681 -219.135894 
L 340.576376 -214.151868 
L 339.900455 -213.590801 
L 339.223893 -213.03478 
L 338.544326 -212.623243 
L 337.864704 -212.180367 
L 337.184113 -211.759915 
L 336.501694 -211.411286 
L 335.820354 -210.965674 
L 335.137087 -210.596799 
L 334.454058 -210.180122 
L 333.768667 -209.863503 
L 333.082063 -209.580399 
L 332.297627 -214.729879 
L 331.324029 -230.289208 
L 330.326149 -246.968412 
L 329.354844 -261.955231 
L 328.435135 -273.913207 
L 327.602687 -280.959216 
L 326.870199 -282.493105 
L 326.277625 -276.466367 
L 325.770479 -265.9149 
L 325.349191 -250.893137 
L 324.992005 -232.624505 
L 324.72804 -209.63726 
L 324.130164 -204.281996 
L 323.441547 -203.655244 
L 322.750099 -203.145479 
L 322.056636 -202.708865 
L 321.362486 -202.276401 
L 320.666745 -201.893841 
L 319.97108 -201.476261 
z
" style="stroke: #414487"/>
    </defs>
    <g clip-path="url(#p56b80ac60f)">
     <use xlink:href="#mdb916f1e71" x="0" y="576" style="fill: #414487; fill-opacity: 0.3; stroke: #414487"/>
    </g>
   </g>
   <g id="Poly3DCollection_3">
    <defs>
     <path id="m0874c3703e" d="M 352.392853 -194.147847 
L 534.036501 -306.36617 
L 534.214684 -320.166408 
L 533.69692 -321.451484 
L 533.188543 -323.525731 
L 532.68266 -325.860382 
L 532.220471 -331.733289 
L 531.744872 -336.647768 
L 531.196151 -335.779674 
L 530.625122 -333.131266 
L 530.069636 -331.753723 
L 529.511256 -330.159089 
L 528.931299 -326.799092 
L 528.380669 -325.872876 
L 527.816451 -323.835569 
L 527.256927 -322.206102 
L 526.675591 -318.742014 
L 526.110894 -316.693164 
L 525.548182 -314.82745 
L 524.985105 -312.944955 
L 524.408843 -309.925337 
L 523.854015 -308.790109 
L 523.306141 -308.297157 
L 522.76211 -308.182747 
L 522.222664 -308.522144 
L 521.679168 -308.543108 
L 521.134761 -308.525145 
L 520.587197 -308.260704 
L 520.042798 -308.330264 
L 519.511294 -309.65045 
L 518.997292 -312.684214 
L 518.437806 -311.496365 
L 517.86934 -309.477463 
L 517.332512 -310.52243 
L 516.778601 -309.971652 
L 516.213543 -308.367735 
L 515.650496 -306.984094 
L 515.127027 -309.567186 
L 514.574577 -309.332593 
L 514.012676 -308.186507 
L 513.440711 -306.043283 
L 512.863188 -303.341146 
L 512.288571 -300.944916 
L 511.727861 -300.015809 
L 511.167991 -299.210976 
L 510.611106 -298.76271 
L 510.057741 -298.73823 
L 509.504806 -298.813793 
L 508.952704 -299.036036 
L 508.400091 -299.260801 
L 507.845757 -299.352874 
L 507.296261 -300.048033 
L 506.746293 -300.759408 
L 506.207775 -302.857742 
L 505.711081 -309.908999 
L 505.182167 -313.382102 
L 504.616004 -312.574586 
L 504.04677 -311.443347 
L 503.460518 -308.293735 
L 502.890148 -307.078752 
L 502.329816 -307.138302 
L 501.764535 -306.645006 
L 501.188607 -304.86348 
L 500.608802 -302.613767 
L 500.029466 -300.440275 
L 499.445827 -297.724177 
L 498.857772 -294.432297 
L 498.285951 -293.294431 
L 497.716045 -292.45636 
L 497.147578 -291.864043 
L 496.579874 -291.433145 
L 496.012934 -291.16941 
L 495.446303 -291.014949 
L 494.881682 -291.216854 
L 494.321432 -292.130348 
L 493.769181 -294.31389 
L 493.182219 -291.47832 
L 492.604238 -289.996472 
L 492.087293 -297.849585 
L 491.539849 -301.284636 
L 490.944232 -297.358479 
L 490.364958 -295.997683 
L 489.78977 -295.339182 
L 489.205059 -293.193814 
L 488.621567 -291.274135 
L 488.043753 -290.338313 
L 487.465986 -289.47152 
L 486.87764 -286.839854 
L 486.297326 -285.628673 
L 485.71148 -283.486973 
L 485.129003 -281.981889 
L 484.548724 -280.928875 
L 483.970688 -280.358513 
L 483.391941 -279.733714 
L 482.811868 -278.932781 
L 482.233624 -278.567253 
L 481.656806 -278.579182 
L 481.079056 -278.508846 
L 480.497332 -277.721386 
L 479.918422 -277.610616 
L 479.340967 -277.922206 
L 478.769223 -279.61486 
L 478.221982 -286.973898 
L 477.64533 -288.039289 
L 477.05651 -286.438687 
L 476.466432 -284.598272 
L 475.874827 -282.4375 
L 475.288506 -281.625783 
L 474.708479 -282.511169 
L 474.114933 -280.065601 
L 473.52633 -278.961067 
L 472.938013 -278.027008 
L 472.346217 -276.225847 
L 471.755839 -274.892481 
L 471.166249 -273.878811 
L 470.576764 -273.004864 
L 469.987624 -272.356727 
L 469.398485 -271.844494 
L 468.810527 -271.867145 
L 468.221315 -271.650545 
L 467.632138 -271.622038 
L 467.044289 -272.264803 
L 466.456033 -273.001874 
L 465.864293 -272.659267 
L 465.273581 -272.91934 
L 464.688881 -275.910288 
L 464.112263 -282.838812 
L 463.528764 -287.497284 
L 462.93389 -287.507562 
L 462.334672 -285.675637 
L 461.737622 -285.057517 
L 461.140035 -284.388016 
L 460.540629 -282.941888 
L 459.939936 -280.907689 
L 459.340564 -279.812097 
L 458.739394 -277.764184 
L 458.137065 -275.029237 
L 457.533368 -271.309593 
L 456.931795 -269.20562 
L 456.330933 -267.870988 
L 455.730102 -266.86376 
L 455.129199 -266.16909 
L 454.528014 -265.645631 
L 453.926528 -265.331298 
L 453.324671 -265.208943 
L 452.722392 -265.280389 
L 452.119741 -265.753903 
L 451.516841 -267.194872 
L 450.913281 -269.160437 
L 450.308909 -271.621215 
L 449.703714 -275.508054 
L 449.097202 -278.664663 
L 448.489598 -280.519999 
L 447.881582 -278.764837 
L 447.273039 -278.23151 
L 446.664077 -277.534751 
L 446.055114 -275.780582 
L 445.445281 -275.250478 
L 444.835522 -273.810483 
L 444.226007 -271.578748 
L 443.616069 -269.683167 
L 443.005611 -268.126044 
L 442.394882 -266.554909 
L 441.784471 -264.420927 
L 441.173462 -262.648409 
L 440.560886 -261.928453 
L 439.947646 -261.372331 
L 439.333189 -261.330201 
L 438.717821 -261.509309 
L 438.102398 -261.345443 
L 437.485279 -261.846416 
L 436.866643 -262.808909 
L 436.246735 -264.036982 
L 435.627334 -264.606222 
L 435.007183 -265.203187 
L 434.386941 -265.523199 
L 433.762923 -267.20969 
L 433.144334 -266.239383 
L 432.525152 -265.345164 
L 431.9086 -263.266259 
L 431.292024 -261.123086 
L 430.673198 -259.727798 
L 430.055832 -257.707648 
L 429.438689 -255.541688 
L 428.822084 -253.140219 
L 428.206969 -250.222051 
L 427.587868 -248.522728 
L 426.967244 -247.198892 
L 426.345216 -246.184457 
L 425.722431 -245.270959 
L 425.095233 -245.459027 
L 424.467444 -245.635629 
L 423.839959 -245.566891 
L 423.209067 -246.21936 
L 422.579172 -246.442215 
L 421.946866 -247.095484 
L 421.310743 -248.484503 
L 420.665946 -251.689968 
L 419.997455 -260.011421 
L 419.347093 -263.801207 
L 418.725867 -260.945549 
L 418.088084 -261.614088 
L 417.46351 -259.364595 
L 416.842283 -256.393143 
L 416.21892 -253.844567 
L 415.594565 -251.468938 
L 414.968292 -249.435373 
L 414.337496 -248.220009 
L 413.712749 -245.806684 
L 413.093071 -242.438686 
L 412.462586 -241.023161 
L 411.83103 -239.737106 
L 411.197919 -238.658208 
L 410.560957 -238.168225 
L 409.923268 -237.712982 
L 409.284629 -237.327328 
L 408.644911 -237.029068 
L 407.999282 -237.587551 
L 407.358318 -237.295401 
L 406.715579 -237.191329 
L 406.059385 -239.05272 
L 405.401823 -240.970963 
L 404.710402 -247.766202 
L 404.050121 -249.718059 
L 403.414435 -247.977152 
L 402.775954 -246.593514 
L 402.151443 -243.201618 
L 401.502191 -243.236629 
L 400.851098 -243.436014 
L 400.20451 -242.938813 
L 399.569055 -240.892642 
L 398.934326 -238.721673 
L 398.312821 -234.814094 
L 397.678326 -232.584326 
L 397.034571 -231.498376 
L 396.389238 -230.556876 
L 395.743397 -229.622789 
L 395.090965 -229.434853 
L 394.441507 -228.817948 
L 393.791362 -228.221388 
L 393.135311 -228.25622 
L 392.479517 -228.186158 
L 391.820005 -228.470117 
L 391.153431 -229.474301 
L 390.470683 -232.194041 
L 389.79093 -234.450223 
L 389.106469 -237.101113 
L 388.426043 -239.187096 
L 387.759314 -239.691754 
L 387.103489 -238.961743 
L 386.461314 -236.748618 
L 385.807772 -235.693349 
L 385.149853 -235.04237 
L 384.488751 -234.661719 
L 383.855245 -231.449541 
L 383.210322 -229.373283 
L 382.575756 -226.254158 
L 381.942458 -223.009592 
L 381.291215 -221.498265 
L 380.637467 -220.19323 
L 379.97781 -219.41067 
L 379.315183 -218.859848 
L 378.64849 -218.635878 
L 377.976627 -218.830928 
L 377.305365 -218.90727 
L 376.629581 -219.330536 
L 375.946733 -220.31863 
L 375.242151 -223.155901 
L 374.539003 -225.757375 
L 373.844091 -227.537062 
L 373.163752 -227.970302 
L 372.453251 -230.917342 
L 371.799838 -228.917858 
L 371.176614 -224.361 
L 370.519976 -222.609504 
L 369.86227 -220.920721 
L 369.176907 -221.469436 
L 368.485882 -222.413643 
L 367.826932 -220.706207 
L 367.163119 -219.361237 
L 366.512821 -216.915189 
L 365.869768 -213.887303 
L 365.219877 -211.388323 
L 364.553387 -210.159291 
L 363.878522 -209.539408 
L 363.203683 -208.875661 
L 362.52243 -208.654515 
L 361.834155 -208.910951 
L 361.151902 -208.665698 
L 360.453847 -209.537345 
L 359.767899 -209.460686 
L 359.047855 -211.807725 
L 358.329359 -213.957945 
L 357.612042 -215.942247 
L 356.875767 -219.191308 
L 356.175992 -219.775478 
L 355.522654 -217.059995 
L 354.876128 -213.864208 
L 354.191987 -213.255347 
L 353.458892 -215.951559 
L 352.759834 -216.253377 
L 352.090817 -214.481417 
z
" style="stroke: #2a788e"/>
    </defs>
    <g clip-path="url(#p56b80ac60f)">
     <use xlink:href="#m0874c3703e" x="0" y="576" style="fill: #2a788e; fill-opacity: 0.3; stroke: #2a788e"/>
    </g>
   </g>
   <g id="Poly3DCollection_4">
    <defs>
     <path id="m1406c3a6b3" d="M 385.30725 -186.765083 
L 564.337651 -300.59859 
L 565.450214 -364.113692 
L 564.890976 -362.343629 
L 564.324854 -360.187659 
L 563.764731 -358.386044 
L 563.178349 -355.068097 
L 562.598345 -352.119176 
L 562.070344 -352.22205 
L 561.549578 -352.780096 
L 561.023026 -353.028498 
L 560.4951 -353.225379 
L 559.981532 -354.310981 
L 559.449082 -354.30066 
L 558.9339 -355.361424 
L 558.412426 -356.079394 
L 557.916666 -358.401165 
L 557.398431 -359.397654 
L 556.878382 -360.321485 
L 556.361933 -361.506738 
L 555.852927 -363.196392 
L 555.325466 -363.779262 
L 554.7938 -364.133757 
L 554.24984 -363.74575 
L 553.690147 -362.385548 
L 553.129082 -360.954282 
L 552.565686 -359.389463 
L 552.000276 -357.709463 
L 551.436915 -356.175673 
L 550.869028 -354.362238 
L 550.276911 -350.97403 
L 549.732355 -350.713057 
L 549.213134 -352.158475 
L 548.657887 -351.253808 
L 548.110641 -350.90709 
L 547.572833 -351.224361 
L 547.04052 -351.949717 
L 546.454712 -349.076514 
L 545.900735 -348.382332 
L 545.367974 -349.173594 
L 544.839768 -350.322808 
L 544.324616 -352.427615 
L 543.827819 -355.875486 
L 543.299687 -357.19199 
L 542.765895 -358.157755 
L 542.220479 -358.342065 
L 541.673915 -358.481538 
L 541.110339 -357.432267 
L 540.548751 -356.550277 
L 539.987522 -355.719941 
L 539.422842 -354.662637 
L 538.853157 -353.259489 
L 538.268999 -350.800829 
L 537.667918 -347.083913 
L 537.024199 -340.15117 
L 536.435145 -337.306143 
L 535.881128 -337.131519 
L 535.330939 -337.286234 
L 534.789319 -338.14246 
L 534.240448 -338.485603 
L 533.691658 -338.878691 
L 533.141678 -339.222724 
L 532.592242 -339.654219 
L 532.045309 -340.330962 
L 531.502091 -341.355278 
L 530.966564 -343.055605 
L 530.448499 -346.240605 
L 529.908755 -347.735268 
L 529.35845 -348.421505 
L 528.801871 -348.638474 
L 528.239095 -348.382621 
L 527.672877 -347.876191 
L 527.101462 -346.964841 
L 526.527364 -345.854717 
L 525.953087 -344.756924 
L 525.375896 -343.434823 
L 524.791441 -341.503431 
L 524.183831 -337.551002 
L 523.527888 -329.300052 
L 522.928955 -326.061809 
L 522.367985 -326.237187 
L 521.806661 -326.429622 
L 521.242748 -326.435583 
L 520.682292 -326.807587 
L 520.123033 -327.344533 
L 519.566083 -328.15447 
L 519.008411 -328.95831 
L 518.448633 -329.624202 
L 517.893271 -330.774266 
L 517.358583 -333.992661 
L 516.817041 -336.647517 
L 516.26287 -338.156666 
L 515.701972 -339.076371 
L 515.133684 -339.325062 
L 514.562705 -339.359579 
L 513.985985 -338.863847 
L 513.402379 -337.706379 
L 512.816295 -336.326011 
L 512.223809 -334.306679 
L 511.629529 -332.116832 
L 511.033016 -329.705262 
L 510.423231 -325.879569 
L 509.780553 -318.472011 
L 509.174268 -314.966104 
L 508.604483 -315.485911 
L 508.033501 -315.941459 
L 507.466451 -316.908873 
L 506.893139 -317.243337 
L 506.321494 -317.83736 
L 505.748598 -318.36018 
L 505.175439 -318.925439 
L 504.603348 -319.692512 
L 504.044852 -322.168273 
L 503.484137 -324.492955 
L 502.918939 -326.384726 
L 502.352058 -328.17609 
L 501.777479 -329.111789 
L 501.197818 -329.494059 
L 500.611966 -329.162647 
L 500.023446 -328.548792 
L 499.430293 -327.385829 
L 498.836057 -326.12429 
L 498.238485 -324.458973 
L 497.640569 -322.781147 
L 497.036314 -320.26786 
L 496.423032 -316.515528 
L 495.801069 -311.52614 
L 495.191588 -308.265236 
L 494.604479 -308.224804 
L 494.019309 -308.546375 
L 493.431914 -308.628433 
L 492.845891 -309.000694 
L 492.260826 -309.612347 
L 491.675005 -310.209079 
L 491.087234 -310.60418 
L 490.502434 -311.568677 
L 489.919435 -312.939386 
L 489.345814 -315.969367 
L 488.762221 -317.531235 
L 488.177565 -319.05513 
L 487.588738 -320.009516 
L 486.994564 -320.164117 
L 486.396435 -319.726177 
L 485.795363 -318.848309 
L 485.189438 -317.16159 
L 484.581262 -315.106432 
L 483.971475 -312.78446 
L 483.360143 -310.194458 
L 482.750796 -308.008824 
L 482.142208 -306.00651 
L 481.53236 -303.790814 
L 480.926389 -302.404505 
L 480.325169 -302.078039 
L 479.726995 -302.509357 
L 479.127716 -302.840663 
L 478.52836 -303.294236 
L 477.930858 -304.315486 
L 477.330863 -304.934778 
L 476.729805 -305.464566 
L 476.12771 -305.905305 
L 475.526016 -306.606357 
L 474.923085 -307.171936 
L 474.319805 -307.822734 
L 473.717253 -308.850225 
L 473.113256 -309.693027 
L 472.505751 -309.762251 
L 471.897654 -309.831226 
L 471.286207 -309.089674 
L 470.673537 -308.112545 
L 470.060742 -307.220682 
L 469.446533 -306.009847 
L 468.831684 -304.705566 
L 468.214988 -302.889628 
L 467.59859 -301.264379 
L 466.974224 -296.852384 
L 466.353942 -293.884146 
L 465.738193 -292.691264 
L 465.125071 -292.704266 
L 464.511334 -292.706636 
L 463.897476 -292.912146 
L 463.284687 -293.888068 
L 462.669586 -294.132349 
L 462.054584 -294.741583 
L 461.439071 -295.451318 
L 460.823321 -296.427944 
L 460.210485 -299.536123 
L 459.595231 -301.885457 
L 458.977868 -303.539568 
L 458.35851 -304.442051 
L 457.737665 -304.812764 
L 457.11523 -304.452013 
L 456.492198 -304.033207 
L 455.867959 -302.972895 
L 455.243127 -301.715822 
L 454.618277 -300.847661 
L 453.992725 -299.643161 
L 453.365956 -297.223755 
L 452.738309 -293.576835 
L 452.109323 -287.094427 
L 451.482213 -283.665636 
L 450.856449 -284.374746 
L 450.22978 -284.329994 
L 449.602586 -284.875237 
L 448.974681 -285.38059 
L 448.346044 -286.297 
L 447.716649 -287.054932 
L 447.086672 -287.147188 
L 446.456127 -287.073341 
L 445.824298 -288.520327 
L 445.190879 -291.247334 
L 444.557251 -292.53175 
L 443.922853 -293.691665 
L 443.287949 -294.453137 
L 442.652784 -294.677385 
L 442.017145 -294.719053 
L 441.381365 -294.329576 
L 440.745862 -293.267174 
L 440.109853 -292.275387 
L 439.472377 -292.016678 
L 438.835674 -290.868656 
L 438.199831 -288.938153 
L 437.567557 -284.769293 
L 436.939891 -278.148714 
L 436.30585 -275.231687 
L 435.665264 -275.562005 
L 435.022998 -276.365559 
L 434.37898 -277.610524 
L 433.738073 -277.116851 
L 433.096118 -276.839727 
L 432.45204 -277.185001 
L 431.806338 -277.888561 
L 431.158766 -279.002751 
L 430.50537 -281.905659 
L 429.853272 -283.939177 
L 429.203637 -284.798188 
L 428.552554 -285.866131 
L 427.901364 -286.701074 
L 427.25229 -286.644071 
L 426.602794 -286.52642 
L 425.95235 -286.503998 
L 425.304351 -285.618581 
L 424.656783 -284.488492 
L 424.007656 -283.660969 
L 423.360006 -282.327871 
L 422.71453 -280.3508 
L 422.073585 -277.197222 
L 421.434056 -273.699267 
L 420.792379 -270.716937 
L 420.148936 -268.127322 
L 419.495043 -267.849648 
L 418.839655 -267.769513 
L 418.183188 -267.784926 
L 417.524475 -268.134797 
L 416.866112 -268.264194 
L 416.204875 -268.836108 
L 415.541641 -269.650793 
L 414.870351 -271.86665 
L 414.193756 -274.880894 
L 413.527706 -275.694691 
L 412.857865 -277.051467 
L 412.189379 -277.99764 
L 411.525603 -277.962823 
L 410.861808 -277.818008 
L 410.199462 -277.31855 
L 409.539318 -276.356475 
L 408.880223 -275.14451 
L 408.217792 -274.404922 
L 407.562166 -272.499233 
L 406.908004 -270.320324 
L 406.258893 -267.32754 
L 405.602403 -265.446975 
L 404.961103 -261.251219 
L 404.290789 -261.358216 
L 403.600168 -264.312237 
L 402.925753 -264.765975 
L 402.254579 -264.654901 
L 401.596764 -262.597137 
L 400.938868 -260.515831 
L 400.264437 -260.634866 
L 399.591623 -260.445177 
L 398.909229 -261.430834 
L 398.220314 -263.14801 
L 397.522368 -265.888569 
L 396.832362 -267.468804 
L 396.147842 -268.239301 
L 395.466861 -268.470375 
L 394.789252 -268.202664 
L 394.113699 -267.612715 
L 393.437028 -267.088376 
L 392.767869 -265.616449 
L 392.092461 -264.823508 
L 391.419161 -263.729623 
L 390.753593 -261.709923 
L 390.095538 -258.821134 
L 389.453946 -254.105439 
L 388.788288 -252.047808 
L 388.093828 -253.069223 
L 387.394765 -254.484871 
L 386.721246 -253.100859 
L 386.071978 -249.143971 
L 385.393932 -248.171315 
L 384.70203 -248.563006 
z
" style="stroke: #22a884"/>
    </defs>
    <g clip-path="url(#p56b80ac60f)">
     <use xlink:href="#m1406c3a6b3" x="0" y="576" style="fill: #22a884; fill-opacity: 0.3; stroke: #22a884"/>
    </g>
   </g>
   <g id="Poly3DCollection_5">
    <defs>
     <path id="m998c917a04" d="M 418.726756 -179.269023 
L 595.049256 -294.752882 
L 596.465491 -358.570093 
L 595.74667 -349.496205 
L 594.899374 -334.548913 
L 593.918781 -313.445883 
L 593.004101 -295.225764 
L 592.441498 -293.04491 
L 591.918716 -292.702509 
L 591.395522 -292.359839 
L 590.871917 -292.0169 
L 590.347899 -291.67369 
L 589.823469 -291.33021 
L 589.298625 -290.986459 
L 588.773367 -290.642437 
L 588.247695 -290.298144 
L 587.721608 -289.953579 
L 587.195106 -289.608743 
L 586.668189 -289.263634 
L 586.153752 -289.536571 
L 585.947068 -304.644205 
L 585.861675 -325.749181 
L 585.640174 -340.438592 
L 585.303521 -349.658665 
L 584.862492 -353.872532 
L 584.337438 -354.020189 
L 583.72231 -349.756087 
L 583.008315 -340.593365 
L 582.181893 -325.80086 
L 581.235207 -304.920779 
L 580.344608 -286.704187 
L 579.7802 -284.752289 
L 579.24741 -284.403334 
L 578.714196 -284.054101 
L 578.180559 -283.704591 
L 577.646498 -283.354804 
L 577.112012 -283.004737 
L 576.5771 -282.654393 
L 576.041763 -282.303769 
L 575.505999 -281.952867 
L 574.969809 -281.601685 
L 574.433192 -281.250223 
L 573.896146 -280.89848 
L 573.369346 -281.109909 
L 573.132827 -296.739313 
L 572.946511 -315.202104 
L 572.740915 -332.819525 
L 572.351973 -340.768496 
L 571.892826 -345.025975 
L 571.360295 -345.371175 
L 570.750042 -341.516207 
L 570.050237 -332.758387 
L 569.249415 -318.402451 
L 568.324883 -297.1213 
L 567.449771 -278.413153 
L 566.875395 -276.300182 
L 566.332307 -275.944482 
L 565.788783 -275.588496 
L 565.244823 -275.232225 
L 564.700426 -274.875668 
L 564.155592 -274.518825 
L 563.610321 -274.161695 
L 563.064611 -273.804278 
L 562.518463 -273.446574 
L 561.971875 -273.088582 
L 561.424848 -272.730302 
L 560.87738 -272.371733 
L 560.339266 -272.5896 
L 560.078346 -289.241097 
L 559.890896 -310.454466 
L 559.58632 -324.908268 
L 559.194961 -334.324234 
L 558.72341 -339.024773 
L 558.165894 -338.588739 
L 557.539261 -333.965386 
L 556.839021 -324.81558 
L 556.051033 -310.198887 
L 555.155553 -288.80844 
L 554.302368 -269.859476 
L 553.71999 -267.683942 
L 553.166302 -267.3213 
L 552.612165 -266.958364 
L 552.05758 -266.595133 
L 551.502545 -266.231609 
L 550.94706 -265.867789 
L 550.391125 -265.503675 
L 549.834738 -265.139265 
L 549.2779 -264.774559 
L 548.72061 -264.409558 
L 548.162867 -264.044259 
L 547.60467 -263.678664 
L 547.057072 -264.050571 
L 546.758224 -281.160878 
L 546.519625 -302.56893 
L 546.179648 -317.37363 
L 545.754588 -326.573769 
L 545.257555 -330.972462 
L 544.698229 -331.154238 
L 544.077509 -327.107203 
L 543.383482 -317.922982 
L 542.610704 -303.126584 
L 541.736305 -280.998097 
L 540.897511 -261.1731 
L 540.306614 -258.898742 
L 539.742013 -258.528952 
L 539.17695 -258.15886 
L 538.611425 -257.788464 
L 538.045437 -257.417766 
L 537.478986 -257.046764 
L 536.91207 -256.675458 
L 536.344691 -256.303848 
L 535.776846 -255.931934 
L 535.208535 -255.559714 
L 534.639758 -255.187189 
L 534.070515 -254.814358 
L 533.512041 -255.310174 
L 533.179075 -273.408775 
L 532.892989 -295.468023 
L 532.512225 -310.3995 
L 532.060897 -319.972336 
L 531.541621 -324.284783 
L 530.971934 -324.639665 
L 530.332651 -319.397041 
L 529.640063 -309.768833 
L 528.879259 -294.433856 
L 528.034769 -271.986171 
L 527.227259 -252.344349 
L 526.627603 -249.939563 
L 526.051763 -249.562412 
L 525.475448 -249.184949 
L 524.898656 -248.807175 
L 524.321388 -248.429088 
L 523.743642 -248.050689 
L 523.165418 -247.671976 
L 522.586716 -247.292951 
L 522.007535 -246.913611 
L 521.427874 -246.533958 
L 520.847733 -246.153989 
L 520.26711 -245.773706 
L 519.698076 -246.506743 
L 519.316157 -264.709006 
L 518.968879 -286.51362 
L 518.51311 -298.473821 
L 518.060188 -310.96009 
L 517.524902 -315.789606 
L 516.94257 -316.19176 
L 516.310314 -311.769468 
L 515.623694 -301.95777 
L 514.879041 -286.24772 
L 514.061828 -263.021098 
L 513.281973 -243.219186 
L 512.674989 -240.801184 
L 512.087571 -240.41645 
L 511.499663 -240.031395 
L 510.911265 -239.646019 
L 510.322375 -239.260321 
L 509.732994 -238.8743 
L 509.14312 -238.487958 
L 508.552753 -238.101292 
L 507.961892 -237.714303 
L 507.370538 -237.326991 
L 506.778688 -236.939354 
L 506.186343 -236.551393 
L 505.60339 -237.300226 
L 505.170277 -255.542558 
L 504.767096 -277.753656 
L 504.301703 -293.124824 
L 503.788784 -303.195725 
L 503.229808 -307.970542 
L 502.630752 -308.005936 
L 501.989833 -302.920518 
L 501.308394 -292.707805 
L 500.582324 -276.6683 
L 499.801603 -253.31094 
L 499.054865 -233.889677 
L 498.440478 -231.478175 
L 497.84113 -231.085627 
L 497.241276 -230.692748 
L 496.640917 -230.299538 
L 496.040052 -229.905997 
L 495.43868 -229.512123 
L 494.8368 -229.117917 
L 494.234413 -228.723379 
L 493.631516 -228.328506 
L 493.02811 -227.933301 
L 492.424194 -227.537761 
L 491.819767 -227.141887 
L 491.22329 -228.046611 
L 490.737152 -246.278096 
L 490.272844 -268.590614 
L 489.757141 -283.406669 
L 489.208548 -293.404338 
L 488.624818 -297.9905 
L 488.010169 -297.621465 
L 487.370325 -293.039138 
L 486.695747 -282.3837 
L 485.992877 -266.492513 
L 485.251502 -243.270451 
L 484.540933 -224.98563 
L 483.915441 -221.964884 
L 483.303795 -221.564282 
L 482.691629 -221.163338 
L 482.078941 -220.762053 
L 481.465731 -220.360426 
L 480.851998 -219.958457 
L 480.237743 -219.556145 
L 479.622963 -219.15349 
L 479.007659 -218.750492 
L 478.391829 -218.347149 
L 477.775474 -217.943462 
L 477.158592 -217.53943 
L 476.547631 -218.648659 
L 476.00944 -237.421228 
L 475.48177 -259.800047 
L 474.923976 -275.822789 
L 474.347348 -287.933568 
L 473.668268 -273.756032 
L 473.015846 -266.236057 
L 472.455652 -284.135108 
L 471.799033 -275.640531 
L 471.107633 -256.638281 
L 470.410145 -234.886802 
L 469.72182 -214.884199 
L 469.090893 -212.255425 
L 468.466566 -211.846518 
L 467.841703 -211.437258 
L 467.216303 -211.027647 
L 466.590364 -210.617683 
L 465.963886 -210.207366 
L 465.336868 -209.796696 
L 464.70931 -209.385672 
L 464.081211 -208.974293 
L 463.452571 -208.56256 
L 462.823388 -208.150472 
L 462.193661 -207.738027 
L 461.567487 -209.411294 
L 460.97346 -228.812431 
L 460.357432 -238.262035 
L 459.749504 -254.025969 
L 459.143686 -273.47335 
L 458.511571 -278.118657 
L 457.869938 -276.987008 
L 457.229341 -276.985751 
L 456.572164 -263.540241 
L 455.914461 -247.785378 
L 455.251851 -224.610419 
L 454.59636 -205.042741 
L 453.957471 -202.343667 
L 453.320066 -201.926194 
L 452.682108 -201.508357 
L 452.043594 -201.090158 
L 451.404526 -200.671595 
L 450.764901 -200.252668 
L 450.12472 -199.833376 
L 449.483981 -199.413719 
L 448.842684 -198.993696 
L 448.200829 -198.573307 
L 447.558413 -198.152552 
L 446.915437 -197.73143 
L 446.271248 -198.990739 
L 445.617711 -217.582517 
L 444.958862 -237.8313 
L 444.299584 -251.891503 
L 443.63919 -262.980737 
L 442.979053 -270.544511 
L 442.324547 -270.193721 
L 441.676544 -263.307949 
L 441.032761 -253.46512 
L 440.398044 -237.586034 
L 439.776214 -214.222651 
L 439.152113 -195.097753 
L 438.505422 -192.223222 
L 437.854523 -191.79691 
L 437.203053 -191.370224 
L 436.55101 -190.943164 
L 435.898395 -190.515728 
L 435.245205 -190.087916 
L 434.591442 -189.659728 
L 433.937102 -189.231164 
L 433.282187 -188.802222 
L 432.626695 -188.372902 
L 431.970626 -187.943204 
L 431.313978 -187.513127 
L 430.652043 -188.765282 
L 429.941225 -206.559477 
L 429.213878 -228.431019 
L 428.501099 -243.955115 
L 427.801552 -254.151929 
L 427.117013 -258.975595 
L 426.444734 -259.714632 
L 425.793735 -254.156368 
L 425.161275 -243.593834 
L 424.551031 -227.451974 
L 423.971596 -203.931439 
L 423.378771 -184.882743 
L 422.724575 -181.887427 
L 422.059749 -181.451994 
L 421.394334 -181.016175 
L 420.728327 -180.579969 
L 420.061729 -180.143375 
L 419.394539 -179.706393 
L 418.726756 -179.269023 
z
" style="stroke: #7ad151"/>
    </defs>
    <g clip-path="url(#p56b80ac60f)">
     <use xlink:href="#m998c917a04" x="0" y="576" style="fill: #7ad151; fill-opacity: 0.3; stroke: #7ad151"/>
    </g>
   </g>
  </g>
 </g>
 <defs>
  <clipPath id="p56b80ac60f">
   <rect x="221.04" y="69.12" width="443.52" height="443.52"/>
  </clipPath>
 </defs>
</svg>
